<?xml version="1.0" encoding="utf-8"?>
<!-- Generator: Adobe Illustrator 18.0.0, SVG Export Plug-In . SVG Version: 6.00 Build 0)  -->
<!DOCTYPE svg PUBLIC "-//W3C//DTD SVG 1.1//EN" "http://www.w3.org/Graphics/SVG/1.1/DTD/svg11.dtd">
<svg version="1.1" id="Layer_1" xmlns="http://www.w3.org/2000/svg"
    xmlns:xlink="http://www.w3.org/1999/xlink" x="0px" y="0px"
    viewBox="0 0 500 300" enable-background="new 0 0 500 300" xml:space="preserve">
<path fill="#27979D" d="M349.3,176.3c12.8,0,28.6-6.3,28.6-32.2s-15.1-32.2-28.6-32.2s-28.6,6.6-28.6,32.2S336.5,176.3,349.3,176.3z
	 M349.3,121.7c8.2,0,13.5,4.3,13.5,22.4c0,17.8-5.3,22.4-13.5,22.4s-13.5-4.3-13.5-22.4C335.9,126.3,341.1,121.7,349.3,121.7z"/>
<path fill="#27979D" d="M296.4,141.8l21.1-27.6h-17.1l-19.4,26h-0.3v-20.4c0-2.6-2.6-7.2-9.2-7.2c-0.7,0-3.6,0-5.3,0.3v62.5h14.8
	v-31.9h0.3l22.7,31.9h16.8L296.4,141.8z"/>
<path fill="#27979D" d="M212.2,160.2l-5.3,7.2c3.6,2.6,10.9,8.9,25.7,8.9c12.8,0,25-7.2,25-19.1c0-13.8-16.4-17.8-28.6-22
	c-6.9-2.6-7.2-7.9-3.9-11.2c5.9-5.6,21.7,0,25.7,1.6l3.9-7.2c0,0-8.9-6.2-22-6.2c-7.6,0-15.1,1-20.4,7.6c-3.9,4.9-4.6,13.5,0.3,19.7
	c4.9,6.3,21.7,11.2,26.6,13.8c3.9,2,4.6,4.9,3.9,7.6C241.4,165.1,231.9,171.7,212.2,160.2z"/>
<path fill="#27979D" d="M402,126.3c3.3-1.6,14.8-5.3,19.7,0c2.6,3,3.3,7.2,3.3,10.9v38.2h14.8v-40.8c0-14.5-11.2-22-21.7-22
	c-4.3,0-10.9,0.7-17.8,5.3c-1.6-2.3-4.6-4.3-9.9-4.3c-1,0-2,0-3.3,0.3v61.5H402V126.3z"/>
<path fill="#27979D" d="M474.7,111.8c-14.1,0-24.3,7.2-24.3,7.2l4.3,6.9c7.9-3.6,16.1-5.6,22.7-3.9c9.2,2,7.9,13.5,7.9,13.5
	c-7.9-0.3-37.5-2.3-37.5,21.4c0,9.9,5.6,17.4,17.8,19.1c7.6,1,14.5-1,20.7-5.3c1.3,2.6,4.3,5.6,10.5,5.6c1,0,2,0,3.3-0.3v-44.7
	C500,115.8,484.2,111.8,474.7,111.8z M485.2,161.5c-5.9,3.6-10.9,4.3-13.8,4.3c-3.3,0-8.9-1.6-8.9-9.9c0-12.5,15.5-13.2,22.7-13.2
	V161.5z"/>
<path fill="#27979D" d="M199.3,176v-44.7c0-15.8-15.8-19.4-25.3-19.4c-14.1,0-24.3,7.2-24.3,7.2l4.3,6.9c7.9-3.6,16.1-5.6,22.7-3.9
	c9.2,2,7.9,13.5,7.9,13.5c-7.9-0.3-37.5-2.3-37.5,21.4c0,9.9,5.6,17.4,17.8,19.1c7.6,1,14.5-1,20.7-5.3c1.3,2.6,4.3,5.6,10.5,5.6
	C197,176,198,176,199.3,176z M184.5,161.5c-5.9,3.6-10.9,4.3-13.8,4.3c-3.3,0-8.9-1.6-8.9-9.9c0-12.5,15.5-13.2,22.7-13.2V161.5z"/>
<path fill="#27979D" d="M19.1,117.1c1.6,0,3.3-0.7,4.6-2c1-1.3,1.6-2.6,1.6-4.6c0-1.6-0.7-3.3-2-4.6c-1-1.3-2.6-2-4.3-2
	s-3.3,0.7-4.6,2s-2,2.6-2,4.6c0,1.6,0.7,3.3,2,4.6C15.5,116.4,17.1,117.1,19.1,117.1z"/>
<path fill="#27979D" d="M5.3,139.1c-3,0-5.3,2.3-5.3,5.3s2.3,5.3,5.3,5.3c1.3,0,2.6-0.7,3.6-1.6c1-1.3,1.6-2.6,1.6-3.9
	C10.2,141.4,7.9,139.1,5.3,139.1z"/>
<path fill="#27979D" d="M52.3,182.9c-4.9,0-8.9,3.9-8.9,8.9s3.9,8.9,8.9,8.9c2.3,0,4.6-1,6.3-2.6c1.6-1.6,2.6-3.9,2.6-6.3
	s-1-4.6-2.6-6.3C56.9,183.6,54.6,182.9,52.3,182.9z"/>
<path fill="#27979D" d="M85.9,165.8c-3.3,0-6.3,1.3-8.6,3.6c-2.3,2.3-3.6,5.3-3.6,8.6s1.3,6.3,3.6,8.6l0,0c2.3,2.3,5.3,3.6,8.6,3.6
	c3.3,0,6.2-1.3,8.6-3.6l0.3-0.3c4.3-4.6,4.3-12.2-0.3-16.8C91.8,166.8,88.8,165.8,85.9,165.8z"/>
<path fill="#27979D" d="M77,119.1c2.3,2.3,5.3,3.6,8.6,3.6c3.3,0,6.2-1.3,8.6-3.6c4.6-4.6,4.6-12.5,0-17.1s-12.2-4.6-17.1,0
	C72.4,106.6,72.4,114.1,77,119.1z"/>
<path fill="#27979D" d="M19.1,171.4c-1.6,0-3.3,0.7-4.6,2c-2.6,2.6-2.6,6.6,0,9.2c1.3,1.3,2.6,2,4.6,2c1.6,0,3.3-0.7,4.6-2
	c1.3-1.3,2-2.6,2-4.6c0-1.6-0.7-3.3-2-4.6C22.4,172,20.7,171.4,19.1,171.4z"/>
<path fill="#27979D" d="M52.3,105.6c4.9,0,8.9-3.9,8.9-9.2c0-4.9-3.9-8.9-8.9-8.9s-8.9,3.9-8.9,9.2
	C43.4,101.6,47.4,105.6,52.3,105.6z"/>
<path fill="#27979D" d="M99.7,128.3c-8.9,0-15.8,7.2-15.8,15.8c0,8.9,6.9,15.8,15.8,15.8c8.6,0,15.8-7.2,15.8-15.8
	C115.1,135.2,108.2,128.3,99.7,128.3z"/>
<g>
	<path fill="#27979D" d="M163.4,201.2l1.4,2.2c-0.6,0.5-1.4,1-2.5,1.5c-1.1,0.5-2.2,0.5-3.6,0.5c-3,0-5.3-0.7-7.2-2.5
		c-1.9-1.7-2.8-3.7-2.8-6.5c0-2.5,0.8-4.7,2.5-6.5c1.7-1.7,4.1-2.5,7.2-2.5c2.5,0,4.4,0.5,5.8,1.7l-1.7,2.2
		c-1.4-0.7-2.8-1.2-4.4-1.2c-1.9,0-3.3,0.5-4.4,1.7c-1.1,1-1.7,2.5-1.7,4.5c0,1.7,0.6,3.2,1.9,4.5c1.4,1.2,2.8,1.7,5,1.7
		C160.6,202.7,162,202.2,163.4,201.2z"/>
	<path fill="#27979D" d="M183.6,205.2h-3.3v-14.4h-8.6v14.4h-3.3v-17.4h15.5v17.4H183.6z"/>
	<path fill="#27979D" d="M202.1,193l-10.2,12.5h-3V188h3.3v12.5l10.2-12.5h3v17.4h-3.3V193z"/>
	<path fill="#27979D" d="M214.6,190.8h-6.4v-3h16v3h-6.4v14.4h-3.3V190.8z"/>
	<path fill="#27979D" d="M238.9,205.2h-11.3v-17.4h11.1v3h-7.7v4.2h6.9v3h-6.9v4.5h8V205.2z"/>
	<path fill="#27979D" d="M241.7,203.7c0-0.5,0.3-1,0.6-1.2c0.3-0.2,0.8-0.5,1.7-0.5c0.8,0,1.4,0.2,1.7,0.7c0.6,0.5,0.6,1.2,0.6,2
		c0,1-0.3,2-0.8,2.7c-0.6,0.7-1.4,1.2-2.5,1.5l-0.8-1.2c0.8-0.2,1.4-0.7,1.7-1.2c0.3-0.5,0.3-1,0.3-1.2c0,0.2-0.3,0.2-0.8,0.2
		c-0.3,0-0.8-0.2-1.1-0.5C242,204.5,241.7,204.2,241.7,203.7z"/>
	<path fill="#27979D" d="M265.8,187.8h3.3v17.4h-3.3V198c-1.1,0.7-2.8,1.2-4.7,1.2c-1.7,0-3-0.5-4.1-1.2c-1.1-1-1.7-2.2-1.7-4.2v-6
		h3.3v5c0,2.5,1.1,3.5,3.3,3.5c1.4,0,2.5-0.5,3.6-1.2v-7.2H265.8z"/>
	<path fill="#27979D" d="M278.5,190.8h-6.4v-3h16v3h-6.4v14.4h-3.3V190.8z"/>
	<path fill="#27979D" d="M289.5,196.5c0-2.5,0.8-4.7,2.8-6.5c1.9-1.7,4.4-2.5,7.2-2.5s5.3,0.7,7.2,2.5c1.9,1.7,2.8,3.7,2.8,6.5
		c0,2.5-0.8,4.7-2.8,6.5c-1.9,1.7-4.4,2.5-7.2,2.5c-3,0-5.3-0.7-7.2-2.5C290.7,201.5,289.5,199.2,289.5,196.5z M293.1,196.5
		c0,1.7,0.6,3.2,1.9,4.5c1.4,1.2,2.8,1.7,4.7,1.7c1.9,0,3.6-0.5,4.7-1.7s1.7-2.7,1.7-4.5s-0.6-3.2-1.9-4.5c-1.4-1.2-2.8-1.7-4.7-1.7
		s-3.3,0.5-4.7,1.7C293.7,193.3,293.1,194.8,293.1,196.5z"/>
	<path fill="#27979D" d="M313.6,205.2v-17.4H325v3h-8v4c0.8,0,1.7-0.2,2.5-0.2c1.9,0,3.6,0.5,4.7,1.5c1.1,1,1.7,2.2,1.7,3.7
		c0,1.7-0.6,3.2-1.9,4.2c-1.4,1-3,1.5-5.5,1.5c-0.6,0-1.4,0-3,0c-0.3,0-0.6,0-0.8,0c-0.3,0-0.6,0-0.8,0
		C313.3,205.5,313.9,205.2,313.6,205.2z M319.4,197.3c-0.8,0-1.4,0-2.2,0.2v5c0.8,0,1.7,0,2.2,0c2.5,0,3.6-0.7,3.6-2.5
		c0-0.7-0.3-1.5-0.8-2S320.5,197.3,319.4,197.3z"/>
	<path fill="#27979D" d="M330.8,187.8h3.3v6c0.8,0,1.4-0.2,2.2-0.2c2.2,0,4.1,0.5,5.3,1.5c1.1,1,1.9,2.5,1.9,4.2
		c0,1.7-0.8,3.2-2.2,4.5c-1.4,1-3.3,1.5-5.8,1.5c-1.1,0-1.9,0-2.8,0s-1.4,0-2.2,0v-17.4H330.8z M336,196.5c-0.3,0-0.8,0-1.9,0v5.7
		c0.3,0,0.6,0,0.8,0c0.6,0,0.8,0,0.8,0c2.5,0,3.9-1,3.9-3c0-1-0.3-1.7-1.1-2C337.7,197,337.1,196.5,336,196.5z M349.3,205.2H346
		v-17.4h3.3V205.2z"/>
	<path fill="#27979D" d="M357.9,205.2l7.5-9.2l-7.2-8.2h3.9l6.9,8.2v-8.2h3.3v8.2l6.9-8.2h3.9l-7.2,8.2l7.5,9.2h-3.9l-7.2-9v9h-3.3
		v-9l-7.5,9H357.9z"/>
	<path fill="#27979D" d="M399.9,193l-10.2,12.5h-3V188h3.3v12.5l10.2-12.5h3v17.4h-3.3V193z"/>
	<path fill="#27979D" d="M412.6,190.8h-6.4v-3h16v3H416v14.4h-3.3V190.8z"/>
	<path fill="#27979D" d="M425.1,187.8h3.3v6c0.8,0,1.7-0.2,2.2-0.2c2.5,0,4.1,0.5,5.5,1.5c1.1,1,1.9,2.2,1.9,4.2
		c0,1.7-0.8,3.2-2.2,4.5c-1.4,1.2-3.3,1.5-5.8,1.5c-1.1,0-1.9,0-2.8,0s-1.4,0-2.2,0L425.1,187.8L425.1,187.8z M430.6,196.5
		c-0.3,0-1.1,0-1.9,0v5.7c1.1,0,1.9,0,1.9,0c2.8,0,4.1-1,4.1-3c0-1-0.3-1.7-1.1-2C432.8,197,431.7,196.5,430.6,196.5z"/>
</g>
</svg>