<svg width="11" height="11" viewBox="0 0 11 11" fill="none" xmlns="http://www.w3.org/2000/svg">
    <path
        d="M0.158538 9.92542C0.108346 9.87657 0.0685109 9.81813 0.0412702 9.75361C0.0140295 9.68909 2.63418e-09 9.61974 0 9.5497C-2.63418e-09 9.47967 0.0139992 9.41041 0.0412399 9.34589C0.0684805 9.28137 0.108347 9.22296 0.158538 9.17412L9.17412 0.158536C9.27375 0.0589077 9.40896 0.00284094 9.54986 0.00284094C9.69075 0.00284095 9.82579 0.0589077 9.92542 0.158536C10.025 0.258164 10.0811 0.393198 10.0811 0.534094C10.0811 0.674989 10.025 0.810207 9.92542 0.909835L0.909837 9.92541C0.810209 10.025 0.675113 10.081 0.534218 10.081C0.393322 10.081 0.258166 10.025 0.158538 9.92542Z"
        fill="#B1B1B1" />
    <path
        d="M0.158504 0.158538C0.207348 0.108346 0.26579 0.0685109 0.33031 0.0412702C0.39483 0.0140295 0.46418 2.63418e-09 0.534215 0C0.604249 -2.63418e-09 0.673508 0.0139992 0.738028 0.0412399C0.802548 0.0684805 0.860959 0.108347 0.909803 0.158538L9.92538 9.17412C10.025 9.27375 10.0811 9.40896 10.0811 9.54986C10.0811 9.69075 10.025 9.82579 9.92538 9.92542C9.82575 10.025 9.69072 10.0811 9.54982 10.0811C9.40893 10.0811 9.27371 10.025 9.17408 9.92542L0.158504 0.909837C0.0588757 0.810209 0.00293158 0.675113 0.00293159 0.534218C0.00293159 0.393322 0.0588757 0.258166 0.158504 0.158538Z"
        fill="#B1B1B1" />
</svg>
    