<svg width="64" height="64" viewBox="0 0 64 64" fill="none" xmlns="http://www.w3.org/2000/svg">
<g clip-path="url(#clip0_1_3065)">
<path d="M60.8578 2.47994C60.7517 2.26704 60.5687 2.10223 60.3458 2.01873C60.1229 1.93522 59.8766 1.93922 59.6566 2.02993C56.3243 2.85049 53.2164 4.40128 50.5581 6.56994C49.0003 7.81078 47.7953 9.43781 47.063 11.2889C46.3306 13.1399 46.0965 15.1504 46.3841 17.12C46.4642 17.8 46.5643 18.4799 46.6444 19.0699C45.2431 17.8799 43.8017 16.6999 42.4004 15.4799C41.9967 15.113 41.6373 14.7002 41.3295 14.2499C40.0182 12.3299 36.7652 7.24994 33.5722 4.44994C29.5684 1.01994 24.9741 -0.660073 19.6391 0.279927C13.7836 1.27993 8.92902 4.27992 4.48485 8.08992C4.27507 8.24568 4.13464 8.47725 4.0935 8.73513C4.05235 8.993 4.11377 9.25672 4.26468 9.46993C5.45693 11.8789 6.92113 14.1436 8.62875 16.2199C9.92997 17.7599 11.3613 19.2199 12.7727 20.7199L12.5825 20.9C6.91722 26.05 4.34471 32.4399 5.34565 40.0199C6.41665 48.1599 10.9109 53.9399 18.3578 57.2399C22.3866 58.8271 26.7795 59.2566 31.0398 58.4799C40.2784 56.5499 47.6053 48.7099 48.336 39.3399C48.9766 31.0299 45.8237 24.4 39.1074 19.46L38.6469 19.0999L41.2693 17.0399C41.4695 17.1799 41.6497 17.2999 41.8199 17.4399C49.6372 23.8099 53.0004 31.9799 51.1686 41.93C50.0484 48.4278 46.3903 54.2148 40.9992 58.0181C35.6081 61.8213 28.9256 63.3292 22.4217 62.2099C15.9178 61.0907 10.1253 57.4361 6.31848 52.0501C2.51168 46.664 1.00239 39.9878 2.12265 33.4899C2.24277 32.7099 2.00255 32.27 1.38197 32.18C0.761388 32.09 0.381056 32.38 0.280962 33.18C-0.274385 36.5432 -0.155328 39.9831 0.631266 43.2999C2.23279 50.1719 6.4861 56.1339 12.4656 59.8884C18.4451 63.643 25.6668 64.8862 32.5593 63.3477C39.4517 61.8091 45.4571 57.6132 49.2684 51.6731C53.0798 45.733 54.3886 38.5294 52.9103 31.6299C52.5299 29.9299 51.9094 28.2799 51.4489 26.5499C51.4489 26.5499 51.7391 26.44 51.8893 26.4C54.6789 25.5455 57.2784 24.1638 59.5465 22.3299C60.7401 21.4117 61.7352 20.2612 62.4715 18.9481C63.2078 17.635 63.6701 16.1865 63.8305 14.6899C64.351 10.2199 62.9297 6.24994 60.8578 2.47994ZM20.1696 2.08992C20.3097 2.08992 20.5099 2.20994 20.6701 2.28994C20.7201 2.335 20.7609 2.38934 20.7902 2.44994L28.0971 12.4499L26.0952 12.0799C24.4837 11.7699 22.8721 11.4699 21.2706 11.1299C21.0139 11.0812 20.7811 10.9473 20.61 10.7499C18.895 8.44326 17.1901 6.10993 15.4952 3.74993C15.4151 3.61864 15.3448 3.48159 15.285 3.33992C16.9266 2.86992 18.5381 2.47993 20.1696 2.05993V2.08992ZM27.8768 14.3799L25.5947 16.0499C23.2125 17.7999 20.8203 19.5299 18.458 21.2899C18.3259 21.4152 18.1559 21.493 17.9747 21.5111C17.7935 21.5292 17.6114 21.4866 17.4571 21.3899C15.8096 20.5107 14.2879 19.4142 12.9328 18.1299L13.6234 17.6099C15.6253 16.1199 17.6972 14.6099 19.7492 13.1399C19.9905 12.9588 20.2889 12.8701 20.59 12.8899C22.9222 13.3099 25.2444 13.7799 27.5966 14.2399C27.6936 14.2667 27.7875 14.3036 27.8768 14.3499V14.3799ZM13.5234 4.30993L18.0376 10.4699L7.25747 8.37993C9.13185 6.71146 11.2434 5.32978 13.5234 4.27993V4.30993ZM11.5816 16.7699C9.74039 14.7724 8.1381 12.5676 6.8071 10.1999L17.6673 12.3099L11.5816 16.7699ZM13.5033 51.7699C8.70882 49.0699 5.37577 37.4999 7.81806 31.8299C8.32854 32.7599 8.81897 33.6299 9.28941 34.5399C9.6037 35.2255 10.0713 35.8299 10.656 36.3067C11.2408 36.7834 11.9272 37.1198 12.6626 37.2899C14.6644 37.8299 14.7646 38.1399 13.9438 40.0499C13.4233 41.2599 12.8327 42.42 12.3022 43.62C11.9647 44.2403 11.8039 44.9412 11.8375 45.6465C11.871 46.3518 12.0975 47.0344 12.4924 47.62C13.2457 48.864 13.5986 50.3091 13.5033 51.7599V51.7699ZM46.184 33.1899C46.2269 33.3377 46.2603 33.488 46.2841 33.6399C46.7045 36.0081 46.7045 38.4318 46.2841 40.7999C45.5347 44.9144 43.4931 48.6834 40.4551 51.5603C37.4171 54.4372 33.5407 56.2725 29.3882 56.7999C24.6538 57.3099 20.9903 56.7099 15.7454 53.6399C15.5949 53.5723 15.4727 53.4545 15.3996 53.3068C15.3266 53.159 15.3073 52.9904 15.345 52.8299C15.6529 50.9039 15.3001 48.9305 14.3441 47.2299C13.9786 46.6783 13.7839 46.0315 13.7839 45.37C13.7839 44.7085 13.9786 44.0616 14.3441 43.5099C14.5179 43.1878 14.6685 42.8536 14.7946 42.5099C15.255 41.4299 15.7955 40.3699 16.1258 39.2499C16.3549 38.6222 16.3292 37.9298 16.0543 37.3207C15.7794 36.7116 15.277 36.234 14.6544 35.9899C14.1429 35.727 13.6019 35.5256 13.0429 35.3899C12.5885 35.2888 12.1638 35.0834 11.8025 34.7901C11.4412 34.4968 11.1532 34.1236 10.961 33.6999C10.2403 32.3499 9.42956 31.0399 8.68887 29.6999C8.65196 29.6147 8.63291 29.5228 8.63291 29.43C8.63291 29.3371 8.65196 29.2452 8.68887 29.1599C9.96501 26.2777 11.9146 23.7435 14.3741 21.7699C15.6954 22.4199 16.9066 23.1399 18.2078 23.6299C19.509 24.1199 20.8503 24.3799 22.2116 24.7499L21.671 25.2199C20.163 26.4668 19.1685 28.2259 18.8784 30.1599C18.7546 30.9243 18.7944 31.7061 18.9952 32.454C19.1959 33.2019 19.553 33.8987 20.0429 34.4987C20.5328 35.0987 21.1443 35.5881 21.8373 35.9348C22.5303 36.2815 23.2889 36.4775 24.0633 36.5099C25.5956 36.4943 27.1246 36.3639 28.6375 36.12C30.5293 35.88 30.7395 35.97 30.8196 37.9C30.9297 40.17 30.8796 42.4299 30.9897 44.6999C31.0257 45.852 31.1936 46.9961 31.4902 48.1099C31.5736 48.5359 31.7511 48.938 32.0097 49.2869C32.2682 49.6357 32.6013 49.9226 32.9848 50.1266C33.3683 50.3307 33.7926 50.4467 34.2266 50.4663C34.6607 50.4859 35.0935 50.4086 35.4939 50.2399C36.9883 49.7977 38.3354 48.9602 39.3926 47.816C40.4497 46.6718 41.1777 45.2635 41.4995 43.7399C41.6143 42.597 41.5502 41.4431 41.3094 40.3199C41.1192 38.4799 41.0391 36.6599 42.6206 35.3199C43.7016 34.4099 44.8928 33.6399 46.0639 32.7799C46.114 32.91 46.1541 33.0438 46.184 33.18V33.1899ZM45.5333 30.8099C45.5333 30.8899 45.5835 30.9699 45.6135 31.0499C44.6126 31.6499 43.7016 32.2299 42.7707 32.8199C41.4632 33.5679 40.4319 34.717 39.8296 36.0969C39.2274 37.4767 39.0864 39.0137 39.4276 40.4799C39.4877 40.8999 39.5477 41.3199 39.6178 41.7299C39.7296 43.2263 39.3317 44.7166 38.4885 45.9584C37.6454 47.2002 36.4066 48.1205 34.9735 48.5699C34.0527 48.7799 33.462 48.5099 33.2618 47.5699C33.0387 46.5299 32.9047 45.4727 32.8614 44.4099C32.7714 42.1899 32.8015 39.9699 32.6914 37.7499C32.633 36.9995 32.4538 36.2634 32.1608 35.5699C31.9963 35.0894 31.6638 34.6843 31.2244 34.4289C30.785 34.1736 30.268 34.0852 29.7686 34.18C28.6175 34.29 27.4765 34.4999 26.3354 34.6399C25.7843 34.7131 25.2296 34.7565 24.6738 34.7699C24.0445 34.8001 23.4176 34.6736 22.8494 34.4018C22.2811 34.13 21.7894 33.7215 21.4182 33.2129C21.0471 32.7043 20.8081 32.1116 20.723 31.4879C20.6378 30.8643 20.7091 30.2293 20.9303 29.6399C21.4807 28.1214 22.5144 26.8251 23.873 25.9499C24.4235 25.5399 24.9841 25.1499 25.5547 24.7599C25.6815 24.6747 25.8247 24.6168 25.9751 24.5899C29.6757 24.0036 33.2099 22.6403 36.3448 20.5899C36.5215 20.4504 36.7402 20.3745 36.9654 20.3745C37.1906 20.3745 37.4092 20.4504 37.586 20.5899C41.3018 23.0114 44.0994 26.6056 45.5333 30.7999V30.8099ZM38.7971 16.6099C35.3466 19.431 31.3074 21.4436 26.976 22.4999C24.7062 23.0279 22.3413 22.9901 20.0896 22.3899L22.0914 20.9C24.7339 18.97 27.3663 17.03 30.0088 15.12C30.251 14.9415 30.5496 14.8563 30.8497 14.8799C33.4221 15.3499 35.9944 15.88 38.5669 16.37C38.6597 16.3908 38.7503 16.4209 38.8371 16.46C38.8471 16.48 38.8371 16.5699 38.7971 16.5999V16.6099ZM39.2474 14.6099C36.5349 14.0699 33.8124 13.5499 31.0899 12.9899C30.8663 12.9116 30.6758 12.76 30.5493 12.5599C28.0537 9.18659 25.568 5.80327 23.0924 2.40993C22.9923 2.27993 22.9222 2.12994 22.7921 1.91994C24.3089 1.9291 25.8114 2.21372 27.2263 2.75994C29.0915 3.49824 30.8202 4.5426 32.341 5.84993C32.4512 6.00993 35.0936 8.49993 36.3448 10.0599C37.4558 11.4599 38.3467 12.9999 39.3476 14.4699L39.2474 14.6099ZM51.559 8.19994C53.5628 6.49623 55.8775 5.1957 58.3755 4.36995C56.8941 7.91995 55.4727 11.3099 53.9914 14.8399C53.1005 12.6699 52.2697 10.6599 51.4489 8.63994C51.423 8.55898 51.4195 8.47249 51.4389 8.38973C51.4583 8.30696 51.4998 8.23101 51.559 8.16994V8.19994ZM50.438 23.4C50.3963 23.4818 50.346 23.5589 50.2878 23.6299C47.9856 19.0699 47.285 13.3099 49.9676 9.99993C50.0471 10.1246 50.1174 10.2549 50.1777 10.3899C51.0686 12.5299 51.9594 14.6799 52.8302 16.8299C52.9199 17.0719 52.9199 17.338 52.8302 17.5799C52.0295 19.4799 51.2087 21.48 50.438 23.4ZM60.4474 18.7599C58.9502 20.6759 57.0094 22.1996 54.792 23.1999C53.9613 23.6199 53.1005 23.9599 52.2497 24.3299L52.1196 24.1999C52.8703 22.4099 53.671 20.6299 54.3517 18.8099C54.4825 18.4079 54.7066 18.0425 55.0059 17.7436C55.3051 17.4446 55.6708 17.2206 56.0733 17.0899C58.0751 16.3499 60.017 15.4999 62.0789 14.6599C61.9128 16.148 61.3493 17.5641 60.4474 18.7599ZM61.8487 12.6899C59.9269 13.5099 57.995 14.2999 55.9031 15.1599C57.3444 11.7399 58.7058 8.45995 60.1271 5.07995C61.2286 7.33072 61.9071 9.76438 62.129 12.2599C62.1187 12.3509 62.0859 12.4379 62.0334 12.513C61.981 12.5881 61.9106 12.6489 61.8287 12.6899H61.8487Z" fill="#00B9C0"/>
</g>
<defs>
<clipPath id="clip0_1_3065">
<rect width="64" height="64" fill="white"/>
</clipPath>
</defs>
</svg>
