<svg width="64" height="64" viewBox="0 0 64 64" fill="none" xmlns="http://www.w3.org/2000/svg">
<g clip-path="url(#clip0_1_3037)">
<path d="M63.0405 12.62C62.1348 9.60455 60.4383 6.88709 58.1274 4.75031C55.8166 2.61352 52.9759 1.13549 49.9007 0.469971C48.9814 0.239971 48.0322 0.129971 47.093 -0.0300293H41.3475C41.2505 0.00908498 41.1501 0.0392077 41.0476 0.059967C36.8198 0.437103 32.8579 2.28556 29.8511 5.28378C26.8442 8.28201 24.9828 12.2403 24.5905 16.47C24.4117 18.2393 24.4959 20.0253 24.8403 21.77C20.5137 21.77 12.5699 21.7 8.35322 21.77C6.92628 21.7765 5.52667 22.1624 4.29768 22.8881C3.06868 23.6137 2.05445 24.6531 1.35869 25.9C0.802687 27.0504 0.351244 28.2486 0.00976562 29.48V50.73C0.351245 51.9581 0.802699 53.153 1.35869 54.3C2.06133 55.5424 3.07658 56.5791 4.30365 57.3072C5.53072 58.0352 6.92687 58.4292 8.35322 58.45C10.7713 58.55 13.2093 58.45 15.6374 58.5C15.9743 58.5137 16.2959 58.6445 16.5468 58.87C17.9057 60.19 19.2247 61.54 20.5436 62.87C20.9433 63.26 21.373 63.61 21.7927 63.98H22.5421C22.8491 63.8256 23.0994 63.5781 23.2573 63.2728C23.4153 62.9674 23.4727 62.6199 23.4214 62.28C23.4214 61.57 23.4214 60.86 23.4214 60.15V58.47C27.4183 58.47 31.4152 58.47 35.3321 58.47C36.0571 58.4804 36.7811 58.41 37.4905 58.26C39.455 57.851 41.2172 56.7738 42.4778 55.2114C43.7384 53.6491 44.4194 51.698 44.405 49.69C44.405 46.98 44.405 39.24 44.405 36.38C46.2394 36.347 48.0677 36.1597 49.8707 35.82C50.016 35.7784 50.1702 35.7789 50.3152 35.8214C50.4602 35.8638 50.5902 35.9466 50.6901 36.06C52.0491 37.44 53.428 38.8 54.7869 40.17C54.9561 40.4228 55.2081 40.6087 55.4994 40.6959C55.7907 40.783 56.1031 40.766 56.3832 40.6477C56.6633 40.5294 56.8936 40.3173 57.0344 40.0476C57.1753 39.778 57.2179 39.4677 57.1551 39.17C57.1551 37.07 57.1551 34.96 57.1551 32.86C57.1539 32.6698 57.1944 32.4817 57.2739 32.3089C57.3533 32.1361 57.4696 31.9829 57.6147 31.86C58.6998 30.8091 59.702 29.6757 60.6123 28.47C62.2737 26.2244 63.3631 23.6075 63.7862 20.8457C64.2093 18.0839 63.9534 15.2605 63.0405 12.62ZM41.967 49.36C42.0165 50.2475 41.8778 51.1355 41.5599 51.9656C41.2421 52.7957 40.7525 53.5491 40.123 54.1762C39.4935 54.8034 38.7384 55.2901 37.9075 55.6044C37.0767 55.9188 36.1888 56.0536 35.3021 56H22.5621C21.453 56 20.9934 56.46 20.9834 57.55V59.63C19.9841 58.63 18.915 57.63 17.9857 56.63C17.811 56.4147 17.5899 56.2417 17.339 56.1239C17.0881 56.0062 16.8139 55.9467 16.5368 55.95C14.0587 55.95 11.5407 55.95 9.10264 55.95C8.22007 55.9963 7.33758 55.856 6.51274 55.5385C5.68791 55.2209 4.93922 54.733 4.31524 54.1067C3.69126 53.4803 3.20603 52.7295 2.89118 51.903C2.57633 51.0766 2.4389 50.1931 2.48781 49.31V30.92C2.4349 30.0268 2.5724 29.1326 2.89118 28.2966C3.20997 27.4607 3.70276 26.7022 4.33683 26.0714C4.9709 25.4406 5.73168 24.952 6.56885 24.638C7.40602 24.3239 8.30039 24.1917 9.19253 24.25H24.9402C25.1268 24.2469 25.312 24.2166 25.4899 24.16C25.9783 25.5246 26.6255 26.8269 27.4183 28.04C29.7703 31.7886 33.4615 34.4992 37.7403 35.62C39.1238 35.989 40.5389 36.2267 41.967 36.33C41.967 36.33 41.967 36.39 41.967 36.41V49.36ZM61.3218 20.07C60.9387 23.866 59.0928 27.3633 56.1758 29.82C55.6555 30.1699 55.2414 30.6563 54.9788 31.226C54.7162 31.7957 54.6153 32.4267 54.687 33.05C54.7969 34.13 54.687 35.24 54.687 36.53C53.6878 35.53 52.7885 34.65 51.9292 33.75C51.703 33.4777 51.3978 33.2823 51.0559 33.191C50.7141 33.0996 50.3523 33.1167 50.0206 33.24C47.4028 33.8514 44.7042 34.0405 42.0269 33.8C38.687 33.7369 35.4672 32.5418 32.894 30.41C30.7975 28.7376 29.1656 26.5543 28.1546 24.0693C27.1437 21.5843 26.7876 18.8811 27.1207 16.2188C27.4537 13.5566 28.4646 11.0246 30.0565 8.86572C31.6483 6.70685 33.7678 4.9935 36.2115 3.88998C38.195 2.95584 40.3644 2.48398 42.5565 2.50996C44.4886 2.47112 46.4212 2.55798 48.342 2.76997C52.2044 3.31838 55.6927 5.37491 58.0444 8.48996C59.3512 10.0943 60.316 11.9493 60.8797 13.9408C61.4433 15.9323 61.5938 18.0181 61.3218 20.07Z" fill="#00B9C0"/>
<path d="M34.4332 38.7699C34.2269 38.7551 34.0199 38.7551 33.8137 38.7699H8.33357C7.33435 38.7699 6.71484 39.2399 6.71484 40.0199C6.71484 40.7999 7.31437 41.2599 8.33357 41.2699H33.8137C34.0199 41.2847 34.2269 41.2847 34.4332 41.2699C34.7322 41.2317 35.007 41.0857 35.2061 40.8593C35.4053 40.6329 35.5152 40.3416 35.5152 40.0399C35.5152 39.7383 35.4053 39.447 35.2061 39.2206C35.007 38.9941 34.7322 38.8481 34.4332 38.8099V38.7699Z" fill="#00B9C0"/>
<path d="M29.0865 45.75H8.36266C8.19961 45.74 8.03611 45.74 7.87306 45.75C7.57407 45.7882 7.29927 45.9342 7.1001 46.1606C6.90093 46.387 6.79102 46.6783 6.79102 46.98C6.79102 47.2816 6.90093 47.5729 7.1001 47.7994C7.29927 48.0258 7.57407 48.1717 7.87306 48.21C8.0793 48.2248 8.28633 48.2248 8.49257 48.21H26.5984C27.5177 48.21 28.427 48.21 29.3463 48.21C29.5552 48.2234 29.7641 48.1836 29.9536 48.0943C30.143 48.005 30.3068 47.8692 30.4295 47.6994C30.5523 47.5296 30.6301 47.3315 30.6556 47.1235C30.681 46.9155 30.6534 46.7044 30.5753 46.51C30.4432 46.2387 30.2264 46.0179 29.9579 45.8808C29.6893 45.7437 29.3834 45.6978 29.0865 45.75Z" fill="#00B9C0"/>
<path d="M7.874 34.23C8.08023 34.2451 8.28728 34.2451 8.49351 34.23H25.8499C26.8492 34.23 27.4687 33.76 27.4687 32.98C27.4687 32.2 26.8692 31.73 25.8599 31.73H8.4535C8.24727 31.715 8.04023 31.715 7.83399 31.73C7.53501 31.7682 7.26021 31.9142 7.06104 32.1406C6.86187 32.367 6.75195 32.6583 6.75195 32.96C6.75195 33.2616 6.86187 33.5529 7.06104 33.7793C7.26021 34.0058 7.53501 34.1518 7.83399 34.19L7.874 34.23Z" fill="#00B9C0"/>
<path d="M34.3323 45.76C34.0062 45.7729 33.6976 45.911 33.4705 46.1456C33.2435 46.3802 33.1156 46.6934 33.1133 47.02C33.1133 47.3489 33.2438 47.6643 33.4762 47.8968C33.7085 48.1294 34.0237 48.26 34.3523 48.26C34.6809 48.26 34.996 48.1294 35.2283 47.8968C35.4607 47.6643 35.5913 47.3489 35.5913 47.02C35.5813 46.689 35.4453 46.3743 35.2114 46.1402C34.9774 45.906 34.663 45.77 34.3323 45.76Z" fill="#00B9C0"/>
<path d="M46.8328 9.29996C46.0297 8.91545 45.1421 8.7414 44.2534 8.79413C43.3647 8.84686 42.504 9.12466 41.7519 9.60145C40.9999 10.0782 40.3811 10.7384 39.9538 11.52C39.5264 12.3016 39.3044 13.179 39.3087 14.07C39.3134 14.3728 39.4305 14.663 39.6373 14.8842C39.844 15.1054 40.1256 15.2417 40.4272 15.2667C40.7288 15.2916 41.0288 15.2034 41.269 15.0192C41.5092 14.835 41.6724 14.5679 41.7268 14.27C41.7268 14.07 41.7967 13.86 41.8267 13.65C41.9139 13.005 42.2268 12.4119 42.7098 11.9761C43.1928 11.5404 43.8147 11.2901 44.4647 11.27C45.1185 11.2466 45.7594 11.455 46.2748 11.8583C46.7901 12.2617 47.1467 12.8341 47.2817 13.4747C47.4166 14.1154 47.3213 14.7831 47.0125 15.3604C46.7037 15.9376 46.2013 16.3872 45.5938 16.63C45.364 16.72 45.1141 16.78 44.8843 16.87C44.4352 17.0203 44.0445 17.3074 43.7667 17.6912C43.489 18.075 43.3382 18.5361 43.3355 19.01C43.3355 19.48 43.3355 19.96 43.3355 20.44V21.88C43.3355 22.76 43.8251 23.32 44.5446 23.34C45.264 23.36 45.8136 22.78 45.8336 21.88C45.8336 21.19 45.8336 20.5 45.8336 19.82C45.8336 19.34 45.9634 19.14 46.4231 18.98C47.3875 18.6364 48.2281 18.0138 48.8383 17.1913C49.4485 16.3687 49.8009 15.3833 49.8505 14.36C49.9355 13.3073 49.6904 12.2542 49.1496 11.3474C48.6088 10.4405 47.799 9.7248 46.8328 9.29996Z" fill="#00B9C0"/>
<path d="M44.5747 25.8101C44.2488 25.8101 43.9361 25.9396 43.7057 26.1703C43.4752 26.401 43.3457 26.7139 43.3457 27.0401C43.3457 27.3663 43.4752 27.6791 43.7057 27.9098C43.9361 28.1405 44.2488 28.2701 44.5747 28.2701C44.9007 28.2701 45.2133 28.1405 45.4438 27.9098C45.6743 27.6791 45.8037 27.3663 45.8037 27.0401C45.8037 26.7139 45.6743 26.401 45.4438 26.1703C45.2133 25.9396 44.9007 25.8101 44.5747 25.8101Z" fill="#00B9C0"/>
</g>
<defs>
<clipPath id="clip0_1_3037">
<rect width="64" height="64" fill="white"/>
</clipPath>
</defs>
</svg>
