<svg width="100" height="52" viewBox="0 0 100 52" fill="none" xmlns="http://www.w3.org/2000/svg">
<g clip-path="url(#clip0_1_509)">
<path d="M-0.0229167 50.6568V34.1068C-0.0253146 34.047 -0.0154643 33.9873 0.00603049 33.9314C0.0275253 33.8755 0.0602064 33.8246 0.102078 33.7818C0.147069 33.7342 0.201341 33.6963 0.261539 33.6705C0.321737 33.6447 0.38659 33.6316 0.452083 33.6318H10.8021C10.9249 33.6414 11.0402 33.6945 11.1273 33.7816C11.2144 33.8687 11.2675 33.984 11.2771 34.1068V36.8318C11.2773 36.8973 11.2641 36.9621 11.2383 37.0223C11.2125 37.0825 11.1747 37.1368 11.1271 37.1818C11.0843 37.2237 11.0334 37.2564 10.9775 37.2779C10.9216 37.2994 10.8619 37.3092 10.8021 37.3068H3.87708V40.9068H9.58333C9.70613 40.9164 9.82147 40.9695 9.90856 41.0566C9.99565 41.1437 10.0488 41.259 10.0583 41.3818V44.1068C10.0566 44.1683 10.0425 44.2288 10.0167 44.2847C9.99091 44.3406 9.95404 44.3906 9.90833 44.4318C9.86942 44.4802 9.81983 44.5189 9.76344 44.545C9.70705 44.571 9.64541 44.5836 9.58333 44.5818H3.87708V50.6568C3.86752 50.7796 3.8144 50.8949 3.72731 50.982C3.64022 51.0691 3.52487 51.1222 3.40208 51.1318H0.452083C0.388098 51.1383 0.323465 51.1305 0.262874 51.1089C0.202283 51.0874 0.147251 51.0526 0.101773 51.0071C0.0562952 50.9616 0.021507 50.9066 -6.03143e-05 50.846C-0.0216277 50.7854 -0.0294317 50.7208 -0.0229167 50.6568ZM14.0625 50.6568V34.1068C14.0721 33.984 14.1252 33.8687 14.2123 33.7816C14.2994 33.6945 14.4147 33.6414 14.5375 33.6318H17.5375C17.6603 33.6414 17.7756 33.6945 17.8627 33.7816C17.9498 33.8687 18.0029 33.984 18.0125 34.1068V50.6568C18.0029 50.7796 17.9498 50.8949 17.8627 50.982C17.7756 51.0691 17.6603 51.1222 17.5375 51.1318H14.5375C14.4147 51.1222 14.2994 51.0691 14.2123 50.982C14.1252 50.8949 14.0721 50.7796 14.0625 50.6568ZM22.3146 50.6568L22.2917 33.8401C22.2913 33.7843 22.3022 33.729 22.3237 33.6775C22.3452 33.6259 22.3768 33.5792 22.4167 33.5401C22.4617 33.4925 22.5159 33.4547 22.5761 33.4289C22.6363 33.4031 22.7012 33.3899 22.7667 33.3901H23.3917L33.3667 42.9901H33.3917V34.1151C33.3893 34.0553 33.3991 33.9956 33.4206 33.9397C33.4421 33.8838 33.4748 33.8329 33.5167 33.7901C33.5617 33.7425 33.6159 33.7047 33.6761 33.6789C33.7363 33.6531 33.8012 33.6399 33.8667 33.6401H36.875C36.9371 33.6383 36.9987 33.651 37.0551 33.677C37.1115 33.703 37.1611 33.7417 37.2 33.7901C37.2457 33.8313 37.2826 33.8814 37.3084 33.9372C37.3341 33.9931 37.3483 34.0536 37.35 34.1151V50.9235C37.3497 50.9816 37.336 51.0389 37.31 51.091C37.284 51.143 37.2463 51.1883 37.2 51.2235C37.1611 51.2719 37.1115 51.3106 37.0551 51.3366C36.9987 51.3627 36.9371 51.3753 36.875 51.3735H36.4583C36.3985 51.3759 36.3388 51.366 36.2829 51.3445C36.227 51.323 36.1761 51.2903 36.1333 51.2485L26.2646 41.3401H26.25V50.6651C26.2502 50.7306 26.2371 50.7955 26.2113 50.8557C26.1855 50.9159 26.1476 50.9701 26.1 51.0151C26.0572 51.057 26.0063 51.0897 25.9504 51.1112C25.8945 51.1327 25.8348 51.1425 25.775 51.1401H22.7896C22.6668 51.1306 22.5514 51.0775 22.4643 50.9904C22.3773 50.9033 22.3241 50.7879 22.3146 50.6651V50.6568Z" fill="black"/>
<path d="M43.0604 50.6568V37.3068H39.4854C39.4214 37.3133 39.3568 37.3055 39.2962 37.2839C39.2356 37.2623 39.1806 37.2276 39.1351 37.1821C39.0896 37.1366 39.0548 37.0816 39.0333 37.021C39.0117 36.9604 39.0039 36.8957 39.0104 36.8318V34.1068C39.008 34.0469 39.0179 33.9872 39.0394 33.9314C39.0608 33.8755 39.0935 33.8246 39.1354 33.7818C39.1804 33.7342 39.2347 33.6963 39.2949 33.6705C39.3551 33.6447 39.4199 33.6315 39.4854 33.6318H50.5854C50.7082 33.6413 50.8235 33.6944 50.9106 33.7815C50.9977 33.8686 51.0509 33.984 51.0604 34.1068V36.8318C51.0607 36.8973 51.0475 36.9621 51.0217 37.0223C50.9959 37.0825 50.958 37.1368 50.9104 37.1818C50.8676 37.2236 50.8167 37.2563 50.7608 37.2778C50.7049 37.2993 50.6452 37.3092 50.5854 37.3068H47.0104V50.6568C47.0009 50.7795 46.9477 50.8949 46.8606 50.982C46.7735 51.0691 46.6582 51.1222 46.5354 51.1318H43.5417C43.4189 51.1222 43.3035 51.0691 43.2164 50.982C43.1293 50.8949 43.0762 50.7795 43.0667 50.6568H43.0604ZM53.5542 50.6568V34.1068C53.5518 34.0469 53.5616 33.9872 53.5831 33.9314C53.6046 33.8755 53.6373 33.8246 53.6792 33.7818C53.7241 33.7342 53.7784 33.6963 53.8386 33.6705C53.8988 33.6447 53.9637 33.6315 54.0292 33.6318H64.375C64.4978 33.6413 64.6131 33.6944 64.7002 33.7815C64.7873 33.8686 64.8404 33.984 64.85 34.1068V36.8318C64.8502 36.8973 64.837 36.9621 64.8112 37.0223C64.7854 37.0825 64.7476 37.1368 64.7 37.1818C64.6572 37.2236 64.6063 37.2563 64.5504 37.2778C64.4945 37.2993 64.4348 37.3092 64.375 37.3068H57.4542V40.4068H63.1542C63.277 40.4163 63.3923 40.4694 63.4794 40.5565C63.5665 40.6436 63.6196 40.759 63.6292 40.8818V43.6068C63.6294 43.6723 63.6162 43.7371 63.5904 43.7973C63.5646 43.8575 63.5268 43.9118 63.4792 43.9568C63.4364 43.9986 63.3854 44.0313 63.3296 44.0528C63.2737 44.0743 63.214 44.0842 63.1542 44.0818H57.4542V47.4568H64.375C64.4978 47.4663 64.6131 47.5194 64.7002 47.6065C64.7873 47.6936 64.8404 47.809 64.85 47.9318V50.6568C64.8502 50.7222 64.837 50.7871 64.8112 50.8473C64.7854 50.9075 64.7476 50.9618 64.7 51.0068C64.6572 51.0486 64.6063 51.0813 64.5504 51.1028C64.4945 51.1243 64.4348 51.1342 64.375 51.1318H54.0292C53.9652 51.1383 53.9005 51.1305 53.84 51.1089C53.7794 51.0873 53.7243 51.0525 53.6788 51.0071C53.6334 50.9616 53.5986 50.9066 53.577 50.846C53.5555 50.7854 53.5476 50.7207 53.5542 50.6568ZM69.5521 48.7818C67.9281 47.1065 67.0154 44.8678 67.0053 42.5346C66.9953 40.2014 67.8885 37.9549 69.498 36.2657C71.1075 34.5765 73.3083 33.5757 75.6392 33.4731C77.9701 33.3705 80.2503 34.1739 82.0021 35.7151C82.2521 35.9484 82.2604 36.1818 82.0271 36.4151L80.0771 38.4234C80.0396 38.4703 79.9921 38.5082 79.938 38.5342C79.8839 38.5602 79.8246 38.5737 79.7646 38.5737C79.7045 38.5737 79.6453 38.5602 79.5912 38.5342C79.5371 38.5082 79.4895 38.4703 79.4521 38.4234C78.5305 37.5841 77.3234 37.1281 76.0771 37.1484C75.4181 37.1342 74.7638 37.2632 74.1596 37.5265C73.5553 37.7898 73.0153 38.1811 72.5771 38.6734C71.6763 39.6609 71.1769 40.9493 71.1769 42.2859C71.1769 43.6225 71.6763 44.9109 72.5771 45.8984C73.0281 46.3786 73.5749 46.7588 74.1821 47.0143C74.7893 47.2698 75.4434 47.395 76.1021 47.3818C77.3285 47.4083 78.5214 46.9809 79.4521 46.1818C79.493 46.1345 79.5439 46.0971 79.6012 46.0723C79.6585 46.0474 79.7207 46.0357 79.7831 46.0381C79.8455 46.0405 79.9065 46.0569 79.9618 46.0861C80.017 46.1153 80.0649 46.1565 80.1021 46.2068L82.0521 48.2901C82.2687 48.5068 82.2604 48.7318 82.0271 48.9651C81.228 49.7549 80.2787 50.3765 79.2352 50.793C78.1918 51.2096 77.0754 51.4126 75.9521 51.3901C74.7645 51.4094 73.5854 51.1882 72.4855 50.74C71.3856 50.2917 70.3878 49.6256 69.5521 48.7818ZM85.0229 50.6568V34.1068C85.0325 33.984 85.0856 33.8686 85.1727 33.7815C85.2598 33.6944 85.3751 33.6413 85.4979 33.6318H88.4729C88.5957 33.6413 88.711 33.6944 88.7981 33.7815C88.8852 33.8686 88.9383 33.984 88.9479 34.1068V40.4068H96.0979V34.1068C96.0955 34.0469 96.1054 33.9872 96.1269 33.9314C96.1483 33.8755 96.181 33.8246 96.2229 33.7818C96.2679 33.7342 96.3222 33.6963 96.3824 33.6705C96.4426 33.6447 96.5074 33.6315 96.5729 33.6318H99.5479C99.6707 33.6413 99.786 33.6944 99.8731 33.7815C99.9602 33.8686 100.013 33.984 100.023 34.1068V50.6568C100.013 50.7795 99.9602 50.8949 99.8731 50.982C99.786 51.0691 99.6707 51.1222 99.5479 51.1318H96.5729C96.5089 51.1383 96.4443 51.1305 96.3837 51.1089C96.3231 51.0873 96.2681 51.0525 96.2226 51.0071C96.1771 50.9616 96.1423 50.9066 96.1208 50.846C96.0992 50.7854 96.0914 50.7207 96.0979 50.6568V44.0818H88.9583V50.6568C88.9586 50.7222 88.9454 50.7871 88.9196 50.8473C88.8938 50.9075 88.8559 50.9618 88.8083 51.0068C88.7655 51.0486 88.7146 51.0813 88.6587 51.1028C88.6028 51.1243 88.5431 51.1342 88.4833 51.1318H85.4979C85.3751 51.1222 85.2598 51.0691 85.1727 50.982C85.0856 50.8949 85.0325 50.7795 85.0229 50.6568Z" fill="#22A4E2"/>
<path d="M29.1187 5.8151L26.6542 3.14843C26.5428 3.0288 26.4085 2.93284 26.2592 2.86626C26.11 2.79968 25.9488 2.76387 25.7854 2.76094L21.7354 2.6901L21.7542 1.64844L25.8042 1.71927C26.1077 1.72565 26.4068 1.79293 26.6838 1.91711C26.9608 2.0413 27.21 2.21985 27.4167 2.44219L29.8812 5.10885L29.1187 5.8151Z" fill="#22A4E2"/>
<path d="M23.1083 8.00661H18.7896C18.4199 8.00585 18.0625 7.87367 17.7812 7.63369L16.1833 6.26078C16.0911 6.18151 15.9736 6.13791 15.8521 6.13786H12.1208C11.9827 6.13786 11.8502 6.08299 11.7525 5.98531C11.6549 5.88763 11.6 5.75516 11.6 5.61703C11.6 5.47889 11.6549 5.34642 11.7525 5.24874C11.8502 5.15107 11.9827 5.09619 12.1208 5.09619H15.8521C16.222 5.09567 16.5798 5.22801 16.8604 5.46911L18.4604 6.84203C18.5525 6.91975 18.669 6.96254 18.7896 6.96286H23.1083C23.2286 6.9633 23.3452 6.92125 23.4375 6.84411L25 5.52744C25.3279 5.25026 25.7435 5.09822 26.1729 5.09828H37.5562C37.6944 5.09828 37.8268 5.15315 37.9245 5.25083C38.0222 5.3485 38.0771 5.48098 38.0771 5.61911C38.0771 5.75725 38.0222 5.88972 37.9245 5.9874C37.8268 6.08507 37.6944 6.13994 37.5562 6.13994H26.1687C25.9849 6.13976 25.8071 6.20472 25.6666 6.32328L24.1083 7.64203C23.8284 7.87762 23.4742 8.00675 23.1083 8.00661Z" fill="#22A4E2"/>
<path d="M20.0916 4.04841C19.713 4.04841 19.3428 3.93612 19.028 3.72574C18.7131 3.51536 18.4677 3.21635 18.3228 2.86651C18.1779 2.51666 18.14 2.1317 18.2139 1.76031C18.2877 1.38891 18.4701 1.04777 18.7378 0.780007C19.0056 0.512248 19.3467 0.329901 19.7181 0.256026C20.0895 0.182152 20.4745 0.22007 20.8243 0.364981C21.1742 0.509891 21.4732 0.755288 21.6836 1.07014C21.8939 1.38499 22.0062 1.75515 22.0062 2.13382C22.0057 2.64143 21.8038 3.1281 21.4449 3.48703C21.0859 3.84596 20.5993 4.04786 20.0916 4.04841ZM20.0916 1.25882C19.9186 1.25882 19.7494 1.31014 19.6055 1.40629C19.4616 1.50244 19.3495 1.63909 19.2833 1.79898C19.217 1.95886 19.1997 2.1348 19.2335 2.30453C19.2672 2.47426 19.3506 2.63017 19.4729 2.75254C19.5953 2.87491 19.7512 2.95825 19.9209 2.99201C20.0907 3.02577 20.2666 3.00845 20.4265 2.94222C20.5864 2.87599 20.723 2.76384 20.8192 2.61995C20.9153 2.47606 20.9667 2.30688 20.9667 2.13382C20.9678 2.01822 20.9459 1.90354 20.9024 1.79641C20.859 1.68929 20.7947 1.59185 20.7133 1.50971C20.632 1.42758 20.5351 1.36238 20.4284 1.31789C20.3217 1.27339 20.2073 1.25049 20.0916 1.25049V1.25882Z" fill="#22A4E2"/>
<path d="M10.3833 7.55915C10.0047 7.55915 9.6345 7.44686 9.31965 7.23648C9.0048 7.02611 8.7594 6.72709 8.61449 6.37724C8.46958 6.0274 8.43166 5.64244 8.50554 5.27105C8.57941 4.89966 8.76176 4.55851 9.02952 4.29075C9.29728 4.02299 9.63843 3.84064 10.0098 3.76677C10.3812 3.69289 10.7662 3.73081 11.116 3.87572C11.4659 4.02063 11.7649 4.26603 11.9753 4.58088C12.1856 4.89573 12.2979 5.2659 12.2979 5.64457C12.2974 6.15218 12.0955 6.63884 11.7365 6.99777C11.3776 7.35671 10.8909 7.5586 10.3833 7.55915ZM10.3833 4.76956C10.2103 4.76956 10.0411 4.82088 9.89721 4.91703C9.75332 5.01317 9.64117 5.14983 9.57494 5.30972C9.50872 5.4696 9.49139 5.64553 9.52515 5.81527C9.55891 5.985 9.64225 6.14091 9.76462 6.26328C9.88699 6.38566 10.0429 6.46899 10.2126 6.50275C10.3824 6.53651 10.5583 6.51918 10.7182 6.45296C10.8781 6.38673 11.0147 6.27458 11.1109 6.13069C11.207 5.9868 11.2583 5.81762 11.2583 5.64457C11.2578 5.41267 11.1654 5.19043 11.0015 5.02645C10.8375 4.86248 10.6152 4.77011 10.3833 4.76956Z" fill="#22A4E2"/>
<path d="M14 12.6964C13.6213 12.6964 13.2511 12.5841 12.9363 12.3737C12.6214 12.1633 12.376 11.8643 12.2311 11.5144C12.0862 11.1646 12.0483 10.7796 12.1222 10.4083C12.1961 10.0369 12.3784 9.69572 12.6462 9.42796C12.9139 9.1602 13.2551 8.97785 13.6265 8.90398C13.9979 8.8301 14.3828 8.86802 14.7327 9.01293C15.0825 9.15784 15.3815 9.40323 15.5919 9.71808C15.8023 10.0329 15.9146 10.4031 15.9146 10.7818C15.9135 11.2892 15.7114 11.7756 15.3526 12.1344C14.9938 12.4932 14.5074 12.6953 14 12.6964ZM14 9.90677C13.8268 9.90636 13.6575 9.95733 13.5133 10.0532C13.3691 10.1491 13.2566 10.2856 13.1901 10.4455C13.1235 10.6053 13.1059 10.7813 13.1394 10.9512C13.173 11.1211 13.2561 11.2772 13.3784 11.3997C13.5007 11.5223 13.6566 11.6059 13.8264 11.6398C13.9962 11.6737 14.1722 11.6565 14.3323 11.5904C14.4923 11.5242 14.629 11.412 14.7253 11.2681C14.8215 11.1242 14.8729 10.9549 14.8729 10.7818C14.8723 10.5502 14.7803 10.3283 14.6167 10.1644C14.4532 10.0005 14.2315 9.90787 14 9.90677Z" fill="#22A4E2"/>
<path d="M25.1646 11.3027H15.7479C15.6098 11.3027 15.4773 11.2478 15.3797 11.1501C15.282 11.0524 15.2271 10.92 15.2271 10.7818C15.2271 10.6437 15.282 10.5112 15.3797 10.4136C15.4773 10.3159 15.6098 10.261 15.7479 10.261H25.1646C25.2961 10.2613 25.4228 10.2113 25.5188 10.1214L27.0375 8.72559C27.2997 8.48391 27.6434 8.35 28 8.35059H37.5521C37.6902 8.35059 37.8227 8.40546 37.9204 8.50314C38.0181 8.60081 38.0729 8.73329 38.0729 8.87142C38.0729 9.00955 38.0181 9.14203 37.9204 9.2397C37.8227 9.33738 37.6902 9.39225 37.5521 9.39225H28C27.9045 9.39222 27.8123 9.42789 27.7417 9.49226L26.2229 10.8902C25.9347 11.1561 25.5568 11.3034 25.1646 11.3027Z" fill="#22A4E2"/>
<path d="M20.8333 15.7152C20.4541 15.7156 20.0834 15.6035 19.7679 15.3932C19.4524 15.1828 19.2064 14.8836 19.0611 14.5334C18.9157 14.1832 18.8774 13.7978 18.9511 13.4259C19.0248 13.0539 19.2072 12.7122 19.4752 12.444C19.7432 12.1757 20.0847 11.9929 20.4565 11.9188C20.8284 11.8447 21.2139 11.8825 21.5642 12.0275C21.9146 12.1725 22.214 12.4182 22.4247 12.7334C22.6354 13.0487 22.7479 13.4193 22.7479 13.7985C22.7473 14.3063 22.5455 14.7932 22.1866 15.1524C21.8278 15.5117 21.3411 15.7141 20.8333 15.7152ZM20.8333 12.9256C20.6601 12.9252 20.4906 12.9762 20.3464 13.0722C20.2022 13.1682 20.0897 13.3048 20.0232 13.4648C19.9567 13.6247 19.9392 13.8008 19.9729 13.9708C20.0066 14.1407 20.09 14.2968 20.2125 14.4193C20.335 14.5418 20.4911 14.6252 20.661 14.6589C20.831 14.6926 21.0071 14.6751 21.167 14.6086C21.327 14.5421 21.4636 14.4296 21.5596 14.2854C21.6556 14.1412 21.7066 13.9717 21.7062 13.7985C21.7062 13.5668 21.6143 13.3446 21.4507 13.1805C21.287 13.0165 21.065 12.9241 20.8333 12.9235V12.9256Z" fill="#22A4E2"/>
<path d="M26.2166 14.3172H22.5208V13.2756H26.2166C26.3758 13.2751 26.5298 13.2191 26.6521 13.1172L28.2708 11.7693C28.5625 11.5113 28.942 11.3749 29.3312 11.3881L33.2271 11.4047C33.7533 11.4059 34.2614 11.5968 34.6583 11.9422L36.0021 13.1068C36.0756 13.1707 36.1692 13.2069 36.2666 13.2089L39.9354 13.2652L39.9187 14.3068L36.25 14.2568C35.9097 14.2485 35.5829 14.1226 35.325 13.9006L33.9812 12.736C33.7721 12.5539 33.5044 12.4533 33.2271 12.4527L29.3312 12.436C29.1887 12.4391 29.0511 12.4889 28.9396 12.5777L27.3208 13.9256C27.0098 14.1811 26.6192 14.3197 26.2166 14.3172Z" fill="#22A4E2"/>
<path d="M78.2458 14.2858L74.1958 14.215C73.8923 14.2085 73.5932 14.1411 73.3163 14.017C73.0393 13.8928 72.7901 13.7143 72.5833 13.4921L70.1187 10.8254L70.8812 10.1191L73.3458 12.7858C73.4568 12.9058 73.5911 13.002 73.7404 13.0686C73.8898 13.1352 74.0511 13.1709 74.2145 13.1733L78.2645 13.2462L78.2458 14.2858Z" fill="#22A4E2"/>
<path d="M87.8791 10.8382H84.1479C83.7778 10.8375 83.4201 10.7045 83.1396 10.4632L81.5417 9.09232C81.4495 9.01306 81.332 8.96945 81.2104 8.9694H76.8917C76.772 8.96873 76.656 9.01085 76.5646 9.08815L75 10.4069C74.6722 10.6847 74.2567 10.8375 73.8271 10.8382H62.4479C62.3098 10.8382 62.1773 10.7833 62.0796 10.6856C61.9819 10.5879 61.9271 10.4555 61.9271 10.3173C61.9271 10.1792 61.9819 10.0467 62.0796 9.94903C62.1773 9.85136 62.3098 9.79648 62.4479 9.79648H73.8312C74.015 9.79667 74.1929 9.73171 74.3333 9.61315L75.8917 8.2944C76.1713 8.05805 76.5255 7.92818 76.8917 7.92773H81.2104C81.5805 7.92834 81.9382 8.06136 82.2187 8.30274L83.8166 9.67565C83.9097 9.75307 84.0268 9.79577 84.1479 9.79648H87.8791C88.0173 9.79648 88.1498 9.85136 88.2474 9.94903C88.3451 10.0467 88.4 10.1792 88.4 10.3173C88.4 10.4555 88.3451 10.5879 88.2474 10.6856C88.1498 10.7833 88.0173 10.8382 87.8791 10.8382Z" fill="#22A4E2"/>
<path d="M79.9083 15.7154C79.5296 15.7154 79.1595 15.6031 78.8446 15.3927C78.5298 15.1824 78.2844 14.8833 78.1395 14.5335C77.9945 14.1837 77.9566 13.7987 78.0305 13.4273C78.1044 13.0559 78.2867 12.7148 78.5545 12.447C78.8222 12.1792 79.1634 11.9969 79.5348 11.923C79.9062 11.8491 80.2911 11.8871 80.641 12.032C80.9908 12.1769 81.2898 12.4223 81.5002 12.7371C81.7106 13.052 81.8229 13.4221 81.8229 13.8008C81.8223 14.3084 81.6204 14.7951 81.2615 15.154C80.9026 15.513 80.4159 15.7148 79.9083 15.7154ZM79.9083 12.9258C79.7352 12.9258 79.5661 12.9771 79.4222 13.0733C79.2783 13.1694 79.1661 13.3061 79.0999 13.466C79.0337 13.6259 79.0163 13.8018 79.0501 13.9715C79.0839 14.1413 79.1672 14.2972 79.2896 14.4195C79.412 14.5419 79.5679 14.6252 79.7376 14.659C79.9073 14.6928 80.0833 14.6754 80.2432 14.6092C80.403 14.543 80.5397 14.4308 80.6358 14.2869C80.732 14.143 80.7833 13.9739 80.7833 13.8008C80.7806 13.5704 80.6872 13.3503 80.5235 13.1881C80.3598 13.0259 80.1388 12.9347 79.9083 12.9341V12.9258Z" fill="#22A4E2"/>
<path d="M89.6167 12.2047C89.238 12.2047 88.8678 12.0924 88.553 11.882C88.2381 11.6716 87.9927 11.3726 87.8478 11.0228C87.7029 10.6729 87.665 10.2879 87.7389 9.91655C87.8128 9.54516 87.9951 9.20402 88.2629 8.93626C88.5306 8.6685 88.8718 8.48615 89.2432 8.41228C89.6145 8.3384 89.9995 8.37632 90.3494 8.52123C90.6992 8.66614 90.9982 8.91153 91.2086 9.22639C91.419 9.54124 91.5312 9.9114 91.5312 10.2901C91.5307 10.7977 91.3288 11.2843 90.9699 11.6433C90.6109 12.0022 90.1243 12.2041 89.6167 12.2047ZM89.6167 9.41507C89.4436 9.41507 89.2744 9.46639 89.1305 9.56254C88.9866 9.65868 88.8745 9.79534 88.8083 9.95522C88.7421 10.1151 88.7247 10.291 88.7585 10.4608C88.7922 10.6305 88.8756 10.7864 88.9979 10.9088C89.1203 11.0312 89.2762 11.1145 89.446 11.1483C89.6157 11.182 89.7916 11.1647 89.9515 11.0985C90.1114 11.0322 90.2481 10.9201 90.3442 10.7762C90.4403 10.6323 90.4917 10.4631 90.4917 10.2901C90.4917 10.1752 90.469 10.0614 90.4251 9.95522C90.3811 9.84906 90.3166 9.7526 90.2354 9.67135C90.1541 9.5901 90.0577 9.52565 89.9515 9.48168C89.8454 9.4377 89.7316 9.41507 89.6167 9.41507Z" fill="#22A4E2"/>
<path d="M79.65 4.04866C79.2708 4.04908 78.8999 3.93696 78.5844 3.72651C78.2689 3.51606 78.0229 3.21675 77.8776 2.86644C77.7322 2.51613 77.6941 2.13058 77.768 1.75859C77.8419 1.3866 78.0245 1.04488 78.2926 0.776709C78.5608 0.508533 78.9025 0.325949 79.2745 0.252061C79.6465 0.178172 80.0321 0.216299 80.3824 0.361625C80.7327 0.506952 81.032 0.752944 81.2424 1.06846C81.4529 1.38397 81.565 1.75482 81.5646 2.13408C81.564 2.64169 81.3621 3.12835 81.0032 3.48729C80.6443 3.84622 80.1576 4.04811 79.65 4.04866ZM79.65 1.25908C79.4769 1.25908 79.3078 1.3104 79.1639 1.40655C79.02 1.50269 78.9078 1.63935 78.8416 1.79923C78.7754 1.95912 78.7581 2.13505 78.7918 2.30479C78.8256 2.47452 78.9089 2.63043 79.0313 2.7528C79.1537 2.87517 79.3096 2.9585 79.4793 2.99227C79.649 3.02603 79.825 3.0087 79.9848 2.94248C80.1447 2.87625 80.2814 2.7641 80.3775 2.62021C80.4737 2.47631 80.525 2.30714 80.525 2.13408C80.525 1.90182 80.4329 1.67905 80.2689 1.51462C80.1048 1.3502 79.8823 1.25755 79.65 1.257V1.25908Z" fill="#22A4E2"/>
<path d="M67.5958 4.53832L63.7021 4.52165C63.1759 4.52046 62.6677 4.32963 62.2708 3.98415L60.9271 2.82165C60.8538 2.75697 60.7602 2.7201 60.6625 2.71748L50.7541 2.65707C50.2757 2.66115 49.8091 2.80607 49.4125 3.07373L48.9541 3.40082L48.35 2.55082L48.8104 2.22373C49.376 1.8117 50.0608 1.59588 50.7604 1.60915L60.6771 1.67165C61.0194 1.67887 61.3486 1.8048 61.6083 2.0279L62.9521 3.19249C63.1612 3.37461 63.4289 3.47521 63.7062 3.47582L67.6021 3.49248C67.7459 3.49711 67.8861 3.44641 67.9937 3.35081L69.6125 2.0029C69.9213 1.74573 70.3106 1.60493 70.7125 1.60498H78.2646V2.64665H70.7041C70.545 2.64711 70.391 2.70311 70.2687 2.80498L68.65 4.1529C68.3544 4.40061 67.9814 4.53698 67.5958 4.53832Z" fill="#22A4E2"/>
<path d="M72.2584 9.08599C71.8793 9.08723 71.5085 8.97594 71.1927 8.76623C70.877 8.55651 70.6307 8.25781 70.4849 7.90795C70.339 7.5581 70.3004 7.17283 70.3737 6.80097C70.447 6.42911 70.6291 6.08739 70.8968 5.81909C71.1645 5.55079 71.5059 5.36798 71.8776 5.29383C72.2493 5.21968 72.6346 5.25753 72.9848 5.40257C73.335 5.54762 73.6342 5.79334 73.8446 6.1086C74.055 6.42386 74.1671 6.79447 74.1667 7.1735C74.1656 7.67966 73.9643 8.16485 73.6068 8.52315C73.2493 8.88146 72.7645 9.08379 72.2584 9.08599ZM72.2584 6.29641C72.085 6.29476 71.9151 6.34462 71.7702 6.43967C71.6253 6.53471 71.5118 6.67066 71.4443 6.83027C71.3767 6.98989 71.358 7.16597 71.3907 7.33619C71.4233 7.50641 71.5058 7.6631 71.6276 7.78638C71.7494 7.90967 71.9051 7.994 72.075 8.02868C72.2448 8.06336 72.4211 8.04682 72.5815 7.98117C72.7419 7.91551 72.8792 7.80369 72.9759 7.6599C73.0727 7.51611 73.1246 7.34682 73.125 7.1735C73.125 6.94267 73.0341 6.72115 72.8718 6.55696C72.7096 6.39277 72.4892 6.29916 72.2584 6.29641Z" fill="#22A4E2"/>
<path d="M68.7896 15.8404C68.4109 15.8404 68.0407 15.7281 67.7259 15.5177C67.411 15.3074 67.1656 15.0083 67.0207 14.6585C66.8758 14.3086 66.8379 13.9237 66.9118 13.5523C66.9857 13.1809 67.168 12.8398 67.4358 12.572C67.7035 12.3042 68.0447 12.1219 68.4161 12.048C68.7875 11.9741 69.1724 12.0121 69.5223 12.157C69.8721 12.3019 70.1711 12.5473 70.3815 12.8621C70.5919 13.177 70.7042 13.5471 70.7042 13.9258C70.7036 14.4334 70.5017 14.9201 70.1428 15.279C69.7839 15.638 69.2972 15.8398 68.7896 15.8404ZM68.7896 13.0508C68.6165 13.0508 68.4474 13.1021 68.3035 13.1983C68.1596 13.2944 68.0474 13.4311 67.9812 13.591C67.915 13.7509 67.8976 13.9268 67.9314 14.0965C67.9652 14.2663 68.0485 14.4222 68.1709 14.5445C68.2932 14.6669 68.4491 14.7502 68.6189 14.784C68.7886 14.8178 68.9645 14.8004 69.1244 14.7342C69.2843 14.668 69.421 14.5558 69.5171 14.4119C69.6133 14.268 69.6646 14.0989 69.6646 13.9258C69.664 13.6939 69.5717 13.4717 69.4077 13.3077C69.2437 13.1437 69.0215 13.0514 68.7896 13.0508Z" fill="#22A4E2"/>
<path d="M70.5 7.69206H60.6959C60.5577 7.69206 60.4253 7.63719 60.3276 7.53951C60.2299 7.44184 60.175 7.30936 60.175 7.17122C60.175 7.03309 60.2299 6.90062 60.3276 6.80294C60.4253 6.70527 60.5577 6.65039 60.6959 6.65039H70.5C70.6382 6.65039 70.7707 6.70527 70.8683 6.80294C70.966 6.90062 71.0209 7.03309 71.0209 7.17122C71.0209 7.30936 70.966 7.44184 70.8683 7.53951C70.7707 7.63719 70.6382 7.69206 70.5 7.69206Z" fill="#22A4E2"/>
<path d="M62.0542 14.3296C61.916 14.3296 61.7836 14.2747 61.6859 14.177C61.5882 14.0793 61.5333 13.9469 61.5333 13.8087C61.5333 13.6706 61.5882 13.5381 61.6859 13.4404C61.7836 13.3428 61.916 13.2879 62.0542 13.2879L67.0354 13.2441C67.1735 13.2441 67.306 13.299 67.4037 13.3967C67.5014 13.4944 67.5562 13.6268 67.5562 13.765C67.5562 13.9031 67.5014 14.0356 67.4037 14.1333C67.306 14.2309 67.1735 14.2858 67.0354 14.2858L62.0521 14.3296H62.0542Z" fill="#22A4E2"/>
<path d="M31.25 4.12581C30.8708 4.12622 30.5 4.01416 30.1846 3.80381C29.8691 3.59345 29.6231 3.29426 29.4777 2.94407C29.3324 2.59388 29.2941 2.20844 29.3678 1.8365C29.4415 1.46457 29.6239 1.12285 29.8919 0.854595C30.1598 0.586336 30.5014 0.403587 30.8732 0.329463C31.2451 0.255339 31.6306 0.293169 31.9809 0.438176C32.3312 0.583182 32.6307 0.828847 32.8414 1.14409C33.0521 1.45932 33.1646 1.82998 33.1646 2.20915C33.164 2.71695 32.9622 3.20383 32.6033 3.56309C32.2444 3.92236 31.7578 4.12471 31.25 4.12581ZM31.25 1.33415C31.0768 1.33373 30.9075 1.3847 30.7633 1.4806C30.6191 1.57649 30.5067 1.713 30.4401 1.87285C30.3736 2.0327 30.3559 2.2087 30.3895 2.37857C30.423 2.54844 30.5062 2.70454 30.6284 2.82712C30.7507 2.9497 30.9066 3.03324 31.0764 3.06718C31.2462 3.10111 31.4223 3.0839 31.5823 3.01774C31.7423 2.95157 31.8791 2.83942 31.9753 2.69548C32.0715 2.55155 32.1229 2.3823 32.1229 2.20915C32.1207 1.9787 32.0279 1.75837 31.8646 1.5958C31.7012 1.43323 31.4804 1.34148 31.25 1.3404V1.33415Z" fill="#22A4E2"/>
<path d="M50.5021 10.1984C50.4098 10.1984 50.3178 10.1901 50.2271 10.1734C49.2146 9.9984 46.3125 7.23173 46.2854 7.20465L47.0208 6.46923C47.7083 7.15048 49.9167 9.0484 50.4167 9.15048C50.6938 9.19632 51.0417 9.03382 51.3771 8.70882C51.6549 8.42832 51.8108 8.04947 51.8108 7.65465C51.8108 7.25983 51.6549 6.88098 51.3771 6.60049L48.3563 3.81923C47.8239 3.33064 47.1416 3.03689 46.4208 2.9859L42.7667 2.72965H32.9979V1.68799H42.8021L46.4938 1.94423C47.4512 2.01198 48.3572 2.4036 49.0625 3.05465L52.0833 5.85048C52.561 6.32544 52.8309 6.97034 52.834 7.64392C52.8372 8.3175 52.5732 8.96487 52.1 9.44423C51.6871 9.89574 51.1131 10.1666 50.5021 10.1984Z" fill="#22A4E2"/>
<path d="M58.4563 19.986C58.18 19.9873 57.9062 19.9337 57.6508 19.8281C57.3954 19.7226 57.1636 19.5674 56.9688 19.3714L52.6125 15.0152C52.4173 14.8195 52.2626 14.5874 52.1571 14.332C52.0516 14.0765 51.9975 13.8028 51.9977 13.5265C51.998 13.2501 52.0528 12.9765 52.1588 12.7213C52.2648 12.4661 52.42 12.2343 52.6157 12.0391C52.8113 11.8439 53.0434 11.6891 53.2988 11.5837C53.5543 11.4782 53.828 11.424 54.1043 11.4243C54.3807 11.4246 54.6543 11.4793 54.9095 11.5853C55.1647 11.6914 55.3965 11.8466 55.5917 12.0422L59.9438 16.3902C60.14 16.5856 60.2957 16.8179 60.4019 17.0737C60.5082 17.3295 60.5628 17.6038 60.5628 17.8808C60.5628 18.1578 60.5082 18.432 60.4019 18.6878C60.2957 18.9436 60.14 19.1759 59.9438 19.3714C59.5489 19.7651 59.0139 19.9861 58.4563 19.986ZM54.1 12.4589C53.8186 12.4598 53.5489 12.5722 53.35 12.7714C53.2508 12.8703 53.172 12.9878 53.1182 13.1173C53.0645 13.2467 53.0368 13.3854 53.0368 13.5256C53.0368 13.6657 53.0645 13.8045 53.1182 13.9339C53.172 14.0633 53.2508 14.1808 53.35 14.2797L57.7084 18.6318C57.9114 18.8253 58.1811 18.9332 58.4615 18.9332C58.7419 18.9332 59.0116 18.8253 59.2146 18.6318C59.3139 18.5329 59.3927 18.4154 59.4464 18.286C59.5002 18.1565 59.5278 18.0178 59.5278 17.8777C59.5278 17.7375 59.5002 17.5988 59.4464 17.4693C59.3927 17.3399 59.3139 17.2224 59.2146 17.1235L54.8584 12.7735C54.7594 12.6731 54.6413 12.5935 54.511 12.5395C54.3808 12.4855 54.241 12.4581 54.1 12.4589Z" fill="#22A4E2"/>
<path d="M60.8688 17.3965C60.5925 17.3978 60.3187 17.3442 60.0633 17.2387C59.8079 17.1332 59.5761 16.9779 59.3813 16.7819L55.025 12.4257C54.8295 12.2302 54.6745 11.9981 54.5687 11.7427C54.4629 11.4873 54.4084 11.2136 54.4084 10.9371C54.4084 10.6607 54.4629 10.387 54.5687 10.1316C54.6745 9.87615 54.8295 9.64409 55.025 9.44861C55.2205 9.25313 55.4526 9.09807 55.708 8.99227C55.9634 8.88648 56.2371 8.83203 56.5136 8.83203C56.79 8.83203 57.0637 8.88648 57.3192 8.99227C57.5746 9.09807 57.8066 9.25313 58.0021 9.44861L62.3584 13.8049C62.6526 14.0992 62.8529 14.4743 62.934 14.8826C63.0151 15.2908 62.9732 15.714 62.8138 16.0984C62.6543 16.4829 62.3844 16.8115 62.0382 17.0425C61.692 17.2736 61.285 17.3968 60.8688 17.3965ZM56.5146 9.88194C56.3041 9.8818 56.0982 9.94409 55.9231 10.0609C55.748 10.1778 55.6114 10.3439 55.5307 10.5383C55.4499 10.7328 55.4287 10.9468 55.4696 11.1533C55.5105 11.3598 55.6117 11.5496 55.7604 11.6986L60.1167 16.0549C60.2156 16.1538 60.333 16.2322 60.4622 16.2857C60.5914 16.3393 60.7299 16.3668 60.8698 16.3668C61.0097 16.3668 61.1482 16.3393 61.2774 16.2857C61.4066 16.2322 61.524 16.1538 61.6229 16.0549C61.7218 15.956 61.8003 15.8385 61.8538 15.7093C61.9073 15.5801 61.9349 15.4416 61.9349 15.3017C61.9349 15.1619 61.9073 15.0234 61.8538 14.8941C61.8003 14.7649 61.7218 14.6475 61.6229 14.5486L57.2667 10.1924C57.1682 10.0933 57.051 10.0148 56.9219 9.9615C56.7927 9.9082 56.6543 9.88116 56.5146 9.88194Z" fill="#22A4E2"/>
<path d="M40.7625 17.2275C40.4915 17.2272 40.2233 17.1735 39.973 17.0695C39.7228 16.9654 39.4955 16.8131 39.3042 16.6212C38.9174 16.2311 38.7004 15.7039 38.7004 15.1546C38.7004 14.6052 38.9174 14.0781 39.3042 13.6879L46.2834 6.47331C46.3798 6.37537 46.511 6.31951 46.6484 6.31791C46.7858 6.3163 46.9183 6.36908 47.017 6.46473C47.1157 6.56039 47.1726 6.69118 47.1752 6.82859C47.1779 6.966 47.1262 7.09889 47.0313 7.19831L40.0438 14.4191C39.8515 14.6125 39.7427 14.8735 39.7408 15.1462C39.7388 15.4188 39.8439 15.6814 40.0334 15.8775C40.2281 16.0683 40.4899 16.1752 40.7625 16.1752C41.0352 16.1752 41.297 16.0683 41.4917 15.8775L42.5542 14.815C42.6534 14.7263 42.7828 14.6789 42.9159 14.6827C43.0489 14.6864 43.1755 14.7409 43.2696 14.835C43.3637 14.9291 43.4182 15.0557 43.4219 15.1887C43.4257 15.3217 43.3783 15.4512 43.2896 15.5504L42.2271 16.6129C42.0355 16.8068 41.8075 16.9609 41.5561 17.0663C41.3048 17.1718 41.0351 17.2266 40.7625 17.2275Z" fill="#22A4E2"/>
<path d="M42.975 19.3652C42.4261 19.3625 41.9004 19.1432 41.5123 18.7551C41.1241 18.3669 40.9048 17.8413 40.9021 17.2923C40.9016 17.0208 40.9553 16.752 41.0601 16.5015C41.1649 16.2511 41.3188 16.0242 41.5125 15.834L42.5354 14.8069C42.6327 14.7094 42.7647 14.6545 42.9024 14.6543C43.0401 14.6541 43.1723 14.7086 43.2698 14.8059C43.3673 14.9031 43.4222 15.0351 43.4224 15.1728C43.4226 15.3106 43.3681 15.4427 43.2709 15.5402L42.2459 16.5694C42.055 16.7641 41.9481 17.0259 41.9481 17.2986C41.9481 17.5712 42.055 17.833 42.2459 18.0277C42.4406 18.2186 42.7024 18.3255 42.975 18.3255C43.2477 18.3255 43.5095 18.2186 43.7042 18.0277L44.7646 16.9652C44.8638 16.8765 44.9933 16.8292 45.1263 16.8329C45.2593 16.8366 45.3859 16.8912 45.48 16.9853C45.5741 17.0794 45.6286 17.2059 45.6323 17.339C45.6361 17.472 45.5887 17.6014 45.5 17.7007L44.4396 18.7632C44.247 18.9548 44.0185 19.1066 43.7672 19.2099C43.5159 19.3132 43.2467 19.366 42.975 19.3652Z" fill="#22A4E2"/>
<path d="M45.2084 21.5733C44.9374 21.573 44.6691 21.5193 44.4189 21.4153C44.1686 21.3113 43.9414 21.1589 43.75 20.967C43.5568 20.7748 43.4034 20.5463 43.2988 20.2946C43.1941 20.0429 43.1403 19.773 43.1403 19.5004C43.1403 19.2278 43.1941 18.9579 43.2988 18.7062C43.4034 18.4545 43.5568 18.2259 43.75 18.0337L44.7729 17.0066C44.8211 16.9583 44.8783 16.92 44.9413 16.8938C45.0042 16.8676 45.0717 16.8541 45.1399 16.854C45.2081 16.8539 45.2757 16.8672 45.3387 16.8933C45.4017 16.9193 45.459 16.9574 45.5073 17.0056C45.5556 17.0537 45.5939 17.1109 45.6201 17.1739C45.6463 17.2369 45.6598 17.3044 45.6599 17.3725C45.66 17.4407 45.6467 17.5083 45.6207 17.5713C45.5947 17.6344 45.5565 17.6917 45.5084 17.74L44.4834 18.7712C44.2925 18.9659 44.1856 19.2277 44.1856 19.5004C44.1856 19.773 44.2925 20.0348 44.4834 20.2295C44.6781 20.4204 44.9399 20.5273 45.2125 20.5273C45.4852 20.5273 45.747 20.4204 45.9417 20.2295L47.0021 19.167C47.1013 19.0783 47.2308 19.031 47.3638 19.0347C47.4968 19.0384 47.6234 19.093 47.7175 19.1871C47.8116 19.2812 47.8661 19.4077 47.8699 19.5408C47.8736 19.6738 47.8262 19.8032 47.7375 19.9025L46.6771 20.965C46.4845 21.1582 46.2556 21.3114 46.0035 21.4158C45.7514 21.5202 45.4812 21.5738 45.2084 21.5733Z" fill="#22A4E2"/>
<path d="M47.4312 23.7463C46.8841 23.7451 46.3597 23.5271 45.9729 23.1401C45.5855 22.7498 45.3681 22.2223 45.3681 21.6724C45.3681 21.1225 45.5855 20.5949 45.9729 20.2047L46.9937 19.1797C47.0408 19.1267 47.0982 19.0839 47.1623 19.0539C47.2265 19.0239 47.2961 19.0073 47.367 19.0051C47.4378 19.0029 47.5083 19.0152 47.5742 19.0412C47.6401 19.0673 47.7 19.1064 47.7502 19.1564C47.8005 19.2063 47.84 19.266 47.8664 19.3318C47.8927 19.3975 47.9054 19.468 47.9037 19.5388C47.9019 19.6096 47.8857 19.6793 47.856 19.7437C47.8264 19.808 47.7839 19.8656 47.7312 19.913L46.7062 20.9422C46.5128 21.1356 46.4042 21.3979 46.4042 21.6713C46.4042 21.9448 46.5128 22.2071 46.7062 22.4005C46.9009 22.5914 47.1627 22.6983 47.4354 22.6983C47.708 22.6983 47.9698 22.5914 48.1646 22.4005L49.2271 21.338C49.2743 21.2852 49.3318 21.2426 49.396 21.2127C49.4603 21.1829 49.53 21.1665 49.6008 21.1645C49.6716 21.1625 49.7421 21.175 49.8079 21.2012C49.8738 21.2274 49.9335 21.2667 49.9836 21.3168C50.0337 21.3669 50.0731 21.4267 50.0993 21.4926C50.1255 21.5584 50.138 21.6289 50.136 21.6997C50.134 21.7705 50.1176 21.8402 50.0878 21.9044C50.0579 21.9687 50.0153 22.0262 49.9625 22.0734L48.9 23.1359C48.7077 23.3298 48.4789 23.4836 48.2268 23.5884C47.9747 23.6932 47.7043 23.7469 47.4312 23.7463Z" fill="#22A4E2"/>
<path d="M56.125 22.1423C55.8479 22.1422 55.5737 22.0869 55.3183 21.9796C55.0628 21.8723 54.8314 21.7151 54.6375 21.5173L50.2333 17.1089C49.8614 16.7096 49.6585 16.1818 49.667 15.6362C49.6756 15.0905 49.8949 14.5694 50.2791 14.1819C50.6776 13.7932 51.2121 13.5757 51.7687 13.5757C52.3253 13.5757 52.8599 13.7932 53.2583 14.1819L57.6125 18.5381C57.907 18.8325 58.1076 19.2077 58.189 19.6161C58.2704 20.0246 58.2289 20.448 58.0697 20.8328C57.9105 21.2177 57.6407 21.5467 57.2946 21.7782C56.9485 22.0098 56.5414 22.1336 56.125 22.1339V22.1423ZM51.7687 14.6152C51.5652 14.6149 51.366 14.6743 51.1958 14.786C51.1312 14.8259 51.0711 14.8727 51.0166 14.9256C50.8232 15.12 50.7118 15.3812 50.7056 15.6554C50.6994 15.9296 50.7988 16.1956 50.9833 16.3985L51.2187 16.6381L55.3729 20.7902C55.5754 20.9829 55.8443 21.0904 56.1239 21.0904C56.4035 21.0904 56.6724 20.9829 56.875 20.7902C56.9747 20.6916 57.054 20.5741 57.108 20.4447C57.1621 20.3152 57.1899 20.1763 57.1899 20.036C57.1899 19.8957 57.1621 19.7568 57.108 19.6274C57.054 19.4979 56.9747 19.3805 56.875 19.2818L52.5208 14.9256C52.3211 14.7266 52.0506 14.615 51.7687 14.6152Z" fill="#22A4E2"/>
<path d="M53.5229 24.7442C53.2459 24.7442 52.9716 24.6889 52.7162 24.5815C52.4608 24.4742 52.2293 24.317 52.0354 24.1192L47.6312 19.7109C47.2591 19.3115 47.0562 18.7835 47.0652 18.2377C47.0741 17.6919 47.2942 17.1708 47.6792 16.7838C47.7837 16.6787 47.8997 16.5858 48.025 16.5067C48.431 16.2512 48.911 16.1395 49.3881 16.1893C49.8653 16.2392 50.3118 16.4478 50.6562 16.7817L55.0125 21.1379C55.4067 21.5339 55.6281 22.0698 55.6281 22.6286C55.6281 23.1873 55.4067 23.7233 55.0125 24.1192C54.8183 24.3173 54.5865 24.4746 54.3307 24.582C54.0749 24.6893 53.8003 24.7444 53.5229 24.7442ZM49.1667 17.215C48.9601 17.2156 48.7581 17.2761 48.5853 17.3892C48.4125 17.5023 48.2762 17.6631 48.193 17.8522C48.1098 18.0413 48.0833 18.2504 48.1168 18.4542C48.1502 18.6581 48.2421 18.8478 48.3812 19.0004L48.4187 19.04L52.7708 23.3921C52.9736 23.5844 53.2424 23.6915 53.5219 23.6915C53.8013 23.6915 54.0701 23.5844 54.2729 23.3921C54.472 23.1912 54.5837 22.9198 54.5837 22.6369C54.5837 22.354 54.472 22.0826 54.2729 21.8817L49.9166 17.5275C49.8185 17.4285 49.7016 17.3499 49.5729 17.2963C49.4442 17.2426 49.3061 17.215 49.1667 17.215Z" fill="#22A4E2"/>
</g>
<defs>
<clipPath id="clip0_1_509">
<rect width="100" height="51.4925" fill="white"/>
</clipPath>
</defs>
</svg>
