<svg width="36" height="36" viewBox="0 0 36 36" fill="none" xmlns="http://www.w3.org/2000/svg">
<path d="M18 0C14.4399 0 10.9598 1.05569 7.99974 3.03355C5.03966 5.01142 2.73255 7.82262 1.37017 11.1117C0.00779724 14.4008 -0.34866 18.02 0.345874 21.5116C1.04041 25.0033 2.75474 28.2106 5.27209 30.7279C7.78944 33.2453 10.9967 34.9596 14.4884 35.6541C17.98 36.3487 21.5992 35.9922 24.8883 34.6298C28.1774 33.2675 30.9886 30.9604 32.9665 28.0003C34.9443 25.0402 36 21.5601 36 18C35.993 13.2282 34.0944 8.65392 30.7202 5.27978C27.3461 1.90563 22.7718 0.00696778 18 0ZM18 35.122C14.6136 35.122 11.3032 34.1178 8.48756 32.2364C5.67187 30.355 3.4773 27.6809 2.18138 24.5523C0.885461 21.4237 0.546387 17.981 1.20704 14.6597C1.8677 11.3383 3.4984 8.28749 5.89295 5.89295C8.2875 3.4984 11.3383 1.86769 14.6597 1.20704C17.981 0.546381 21.4237 0.885456 24.5523 2.18138C27.6809 3.4773 30.355 5.67186 32.2364 8.48756C34.1178 11.3032 35.122 14.6136 35.122 18C35.115 22.5389 33.3088 26.8899 30.0994 30.0994C26.8899 33.3088 22.5389 35.115 18 35.122Z" fill="#7E7E7E"/>
<path d="M26.3063 12.2576C26.0823 11.6745 25.7383 11.145 25.2967 10.7033C24.855 10.2617 24.3255 9.91768 23.7424 9.69365C23.0609 9.44406 22.3431 9.30763 21.6176 9.28976C20.678 9.24586 20.3795 9.23708 18 9.23708C15.6205 9.23708 15.322 9.23708 14.3824 9.28976C13.6569 9.30763 12.9391 9.44406 12.2576 9.69365C11.6745 9.91768 11.145 10.2617 10.7033 10.7033C10.2617 11.145 9.91768 11.6745 9.69365 12.2576C9.44406 12.9391 9.30763 13.6569 9.28976 14.3824C9.21951 15.3659 9.21951 15.6205 9.21951 18C9.21951 20.3795 9.21951 20.6781 9.27219 21.6088C9.28927 22.3373 9.42572 23.0581 9.6761 23.7424C9.90389 24.3233 10.2492 24.8509 10.6904 25.2921C11.1316 25.7332 11.6591 26.0785 12.24 26.3063C12.9215 26.5559 13.6393 26.6924 14.3649 26.7103C15.3044 26.7542 15.6029 26.7629 17.9824 26.7629C20.3619 26.7629 20.6605 26.7629 21.6 26.7103C22.3256 26.6924 23.0433 26.5559 23.7249 26.3063C24.3057 26.0785 24.8333 25.7332 25.2745 25.2921C25.7157 24.8509 26.061 24.3233 26.2888 23.7424C26.5433 23.0592 26.6799 22.3377 26.6927 21.6088C26.7366 20.6781 26.7454 20.3795 26.7454 18C26.7454 15.6205 26.7454 15.322 26.6927 14.3824C26.6848 13.6574 26.5542 12.939 26.3063 12.2576ZM25.1385 21.5122C25.1295 22.0701 25.0256 22.6224 24.8312 23.1454C24.682 23.5203 24.4578 23.8608 24.1725 24.1461C23.8871 24.4315 23.5466 24.6556 23.1717 24.8049C22.6491 24.9995 22.0962 25.1005 21.5385 25.1034C20.6166 25.1473 20.3444 25.1561 18.0263 25.1561C15.7083 25.1561 15.3922 25.1561 14.5141 25.1034C13.9564 25.1005 13.4036 24.9995 12.881 24.8049C12.5061 24.6556 12.1655 24.4315 11.8802 24.1461C11.5949 23.8608 11.3707 23.5203 11.2215 23.1454C11.0268 22.6227 10.9258 22.0699 10.9229 21.5122C10.9229 20.5902 10.8702 20.3093 10.8702 18C10.8702 15.6907 10.8702 15.3659 10.9229 14.4878C10.9258 13.9301 11.0268 13.3773 11.2215 12.8546C11.3535 12.4773 11.5697 12.135 11.8537 11.8537C12.1343 11.5625 12.4762 11.3376 12.8546 11.1951C13.3773 11.0005 13.9301 10.8995 14.4878 10.8966C15.4098 10.8966 15.6819 10.8439 18 10.8439C20.318 10.8439 20.6341 10.8439 21.5122 10.8966C22.0699 10.8995 22.6227 11.0005 23.1454 11.1951C23.5238 11.3376 23.8657 11.5625 24.1463 11.8537C24.4398 12.1323 24.6652 12.4748 24.8049 12.8546C24.9992 13.3776 25.1032 13.9299 25.1122 14.4878C25.1122 15.4098 25.1561 15.682 25.1561 18C25.1561 20.318 25.1737 20.6341 25.1385 21.5122Z" fill="#7E7E7E"/>
<path d="M18 13.5044C17.1112 13.5061 16.2429 13.7713 15.5048 14.2663C14.7666 14.7613 14.1918 15.4641 13.8529 16.2857C13.5139 17.1073 13.4262 18.0109 13.6006 18.8824C13.7751 19.7539 14.2039 20.5541 14.833 21.182C15.4621 21.8098 16.2631 22.2371 17.135 22.4099C18.0068 22.5826 18.9102 22.4931 19.7312 22.1525C20.5522 21.812 21.2537 21.2358 21.7473 20.4967C22.2409 19.7576 22.5044 18.8888 22.5044 18C22.5021 16.8069 22.0265 15.6634 21.182 14.8206C20.3375 13.9777 19.1931 13.5044 18 13.5044ZM18 20.9239C17.4217 20.9239 16.8564 20.7524 16.3756 20.4311C15.8947 20.1099 15.52 19.6532 15.2987 19.1189C15.0774 18.5847 15.0195 17.9967 15.1323 17.4296C15.2451 16.8624 15.5236 16.3414 15.9325 15.9325C16.3414 15.5236 16.8624 15.2451 17.4296 15.1323C17.9967 15.0195 18.5847 15.0774 19.1189 15.2987C19.6532 15.52 20.1099 15.8947 20.4311 16.3756C20.7524 16.8564 20.9239 17.4217 20.9239 18C20.9239 18.7755 20.6158 19.5192 20.0675 20.0675C19.5192 20.6158 18.7755 20.9239 18 20.9239Z" fill="#7E7E7E"/>
<path d="M22.68 12.2663C22.4716 12.2663 22.2679 12.3281 22.0946 12.4439C21.9213 12.5597 21.7863 12.7243 21.7065 12.9168C21.6268 13.1093 21.6059 13.3212 21.6466 13.5256C21.6872 13.73 21.7876 13.9177 21.935 14.065C22.0823 14.2124 22.2701 14.3128 22.4744 14.3534C22.6788 14.3941 22.8907 14.3732 23.0832 14.2935C23.2757 14.2137 23.4403 14.0787 23.5561 13.9054C23.6719 13.7321 23.7337 13.5284 23.7337 13.32C23.7337 13.1816 23.7064 13.0446 23.6535 12.9168C23.6005 12.789 23.5229 12.6728 23.4251 12.575C23.3272 12.4771 23.2111 12.3995 23.0832 12.3465C22.9554 12.2936 22.8184 12.2663 22.68 12.2663Z" fill="#7E7E7E"/>
</svg>
