<?xml version="1.0" standalone="no"?>
<!DOCTYPE svg PUBLIC "-//W3C//DTD SVG 20010904//EN"
 "http://www.w3.org/TR/2001/REC-SVG-20010904/DTD/svg10.dtd">
<svg version="1.0" xmlns="http://www.w3.org/2000/svg"
 width="719.000000pt" height="182.000000pt" viewBox="0 0 719.000000 182.000000"
 preserveAspectRatio="xMidYMid meet">

<g transform="translate(0.000000,182.000000) scale(0.100000,-0.100000)"
fill="#407CD3" stroke="none">
<path d="M6278 1700 c-87 -14 -205 -57 -283 -102 -88 -51 -227 -191 -278 -278
-58 -100 -97 -234 -103 -354 l-5 -101 47 90 c38 71 68 110 144 185 80 81 110
103 190 143 128 64 225 87 362 87 306 0 570 -163 704 -435 43 -89 74 -185 74
-234 0 -37 15 -14 29 43 20 82 25 209 11 293 -60 376 -364 650 -740 668 -52 2
-121 0 -152 -5z"/>
<path d="M128 951 c-1 -402 -2 -752 -3 -778 l0 -48 394 -3 c421 -2 458 1 558
49 151 73 245 259 214 426 -40 215 -201 355 -437 378 -141 14 -267 -28 -365
-121 -107 -102 -159 -260 -125 -377 20 -67 56 -114 111 -138 105 -48 227 3
254 106 19 73 -22 157 -89 185 -46 19 -123 8 -165 -24 -41 -32 -44 -21 -11 49
27 59 88 118 141 135 49 16 170 8 212 -14 51 -26 102 -75 126 -120 16 -31 21
-58 21 -116 -1 -130 -67 -238 -181 -296 -52 -26 -68 -29 -153 -29 -88 0 -101
3 -162 33 -136 67 -184 159 -176 334 4 87 9 106 41 170 46 93 92 147 180 209
l70 49 -56 0 -57 0 0 276 0 277 79 -5 c172 -10 284 -116 285 -268 1 -90 -18
-136 -79 -196 l-52 -50 91 0 c50 0 124 -7 165 -14 l74 -14 38 43 c114 128 108
340 -14 468 -58 61 -107 92 -197 124 -62 21 -82 23 -397 27 l-333 4 -2 -731z"/>
<path d="M3005 1640 c-186 -30 -323 -117 -387 -247 -60 -123 -49 -297 25 -395
72 -94 175 -141 507 -228 287 -76 342 -121 328 -271 -6 -63 -45 -113 -119
-154 -50 -27 -64 -30 -170 -33 -137 -5 -205 11 -286 63 -58 38 -98 98 -108
160 -15 94 1 85 -145 85 -149 0 -137 11 -116 -110 35 -197 173 -331 401 -391
112 -29 317 -30 426 -1 164 44 283 131 342 251 31 63 32 71 32 186 0 111 -2
124 -28 177 -16 33 -49 76 -78 102 -79 71 -157 103 -434 177 -312 83 -354 106
-363 197 -9 98 44 175 142 209 66 22 222 22 285 -1 90 -33 153 -106 167 -193
l7 -43 127 0 128 0 -5 43 c-29 261 -212 409 -521 422 -53 2 -124 0 -157 -5z"/>
<path d="M1617 1608 c-2 -7 -75 -197 -162 -421 -86 -224 -155 -415 -152 -425
3 -9 17 -45 32 -80 49 -117 35 -263 -35 -372 -46 -69 -111 -121 -195 -152
l-60 -23 134 -3 c74 -1 137 1 141 5 4 4 38 92 76 196 l69 187 295 -2 295 -3
69 -192 69 -193 140 0 139 0 -6 23 c-3 12 -131 346 -284 742 l-278 720 -141 3
c-107 2 -142 -1 -146 -10z m258 -582 c58 -164 105 -299 105 -302 0 -2 -99 -4
-220 -4 -129 0 -220 4 -220 9 0 5 45 130 99 278 127 343 121 327 126 321 3 -2
52 -138 110 -302z"/>
<path d="M3970 875 l0 -745 135 0 135 0 -2 742 -3 743 -132 3 -133 3 0 -746z"/>
<path d="M4407 1613 c-4 -3 -7 -55 -7 -115 l0 -108 240 0 240 0 0 -630 0 -630
130 0 130 0 0 630 0 630 240 0 241 0 -3 113 -3 112 -601 3 c-330 1 -604 -1
-607 -5z"/>
<path d="M6576 1275 c163 -81 253 -242 242 -433 -7 -115 -46 -201 -129 -285
-223 -223 -618 -150 -646 118 -3 29 -2 66 2 82 l7 28 15 -30 c65 -126 217
-153 339 -60 47 36 76 102 75 175 -1 295 -426 407 -676 178 -93 -85 -154 -238
-140 -353 35 -279 201 -480 470 -571 63 -21 105 -28 200 -31 151 -6 257 16
393 84 158 77 302 232 367 391 25 61 25 64 11 131 -30 145 -94 266 -200 378
-81 86 -180 155 -280 194 -88 35 -117 37 -50 4z"/>
</g>
</svg>
