<svg width="74" height="64" viewBox="0 0 74 64" fill="none" xmlns="http://www.w3.org/2000/svg">
<g clip-path="url(#clip0_1_3012)">
<path d="M71.1922 7.05005C71.0987 6.92172 70.9948 6.80129 70.8815 6.69003C69.5433 5.17428 67.9972 3.85458 66.289 2.77004C63.2333 1.00188 59.7681 0.0589911 56.2354 0.0344395C52.7027 0.00988792 49.2247 0.904521 46.1446 2.63004C45.9569 2.74685 45.7428 2.81453 45.5219 2.82677C45.301 2.839 45.0806 2.79541 44.8811 2.70004C33.5104 -1.86996 22.8215 -0.659947 12.7944 6.46005C11.5554 7.41317 10.3766 8.44179 9.26485 9.54004L9.19472 9.61005C7.92487 10.9427 6.74253 12.3556 5.65512 13.84C3.20837 17.3106 1.50197 21.2452 0.641572 25.4001C0.340759 26.8801 0.160311 28.4001 -0.0703125 29.8701V34.05C-0.020177 34.28 0.0199363 34.5101 0.0600447 34.7401C0.340804 36.4401 0.501213 38.18 0.912324 39.84C2.79737 47.4272 7.41674 54.057 13.8894 58.465C20.3621 62.8729 28.2352 64.7507 36.0072 63.7401C46.4454 62.41 54.3667 57.04 59.7513 48.06C63.1114 42.4787 64.5909 35.9709 63.9728 29.4901C63.9227 29.2521 63.9611 29.0041 64.0811 28.7924C64.2011 28.5808 64.3943 28.4199 64.6246 28.34C66.0577 27.6058 67.4203 26.7422 68.6955 25.76C74.7118 20.82 75.6944 13.01 71.1922 7.05005ZM61.7968 35.32C61.2153 41.4973 58.6072 47.3109 54.3768 51.86C46.6459 60.18 37.09 63.35 25.9299 61.19C18.9171 59.8623 12.6629 55.9492 8.41257 50.23C5.87139 47.021 4.03437 43.3155 3.02044 39.3534C2.00651 35.3913 1.83828 31.2611 2.52667 27.23C3.20917 22.8471 4.89377 18.6796 7.45001 15.05C7.45001 15.05 9.84651 12.05 10.7289 11.1C10.8492 10.97 10.9796 10.87 11.0999 10.75C19.1216 3.20003 28.5571 0.750037 39.2861 3.10004C40.6698 3.40004 42.0033 3.93004 43.357 4.35004C43.2968 4.53004 43.2969 4.56004 43.2768 4.57004L42.8056 5.02005C39.1858 8.50005 37.4411 12.64 38.3936 17.69C39.1055 21.2181 41.1522 24.3372 44.109 26.4001C44.2705 26.4937 44.3976 26.6365 44.4716 26.8075C44.5456 26.9785 44.5626 27.1687 44.5202 27.35C44.3096 28.87 44.1491 30.4001 43.9987 31.9301C43.9351 32.2401 43.9764 32.5624 44.1161 32.8465C44.2558 33.1306 44.4861 33.3604 44.7708 33.5C45.0583 33.6279 45.3785 33.6639 45.6873 33.603C45.9961 33.5421 46.2784 33.3874 46.4955 33.16C47.8291 32.09 49.1627 31.03 50.5063 30C50.7972 29.7947 51.1575 29.7121 51.509 29.7701C53.6279 30.2356 55.8074 30.3639 57.9665 30.1501C59.25 30.0201 60.5134 29.76 61.7968 29.55C61.8968 31.4721 61.8968 33.398 61.7968 35.32ZM68.9261 22.58C64.5543 27.41 58.8991 28.7901 52.7023 27.7101C51.0378 27.4301 49.7944 27.5501 48.6112 28.7101C47.8963 29.3353 47.1464 29.9196 46.3651 30.4601C46.5155 29.2201 46.5958 28.17 46.7863 27.13C46.8899 26.7001 46.8477 26.248 46.6662 25.8445C46.4848 25.4411 46.1744 25.1089 45.7836 24.9001C44.2329 23.9279 42.9313 22.6079 41.9826 21.0454C41.0338 19.4829 40.4641 17.721 40.3188 15.9001C40.1926 14.1041 40.5001 12.3042 41.2155 10.6512C41.9308 8.99825 43.0331 7.54045 44.43 6.40006C49.8947 1.50006 58.8389 0.790043 65.3364 4.70004C66.308 5.44297 67.2418 6.23396 68.134 7.07004C69.564 8.36511 70.6376 10.0038 71.2525 11.83C71.8733 13.6645 71.9848 15.6323 71.5752 17.5249C71.1657 19.4174 70.2503 21.1642 68.9261 22.58Z" fill="#407CD3"/>
<path d="M33.4798 17.2299C33.3695 18.4499 33.3094 19.6699 33.1389 20.8799C33.0511 21.7755 32.6805 22.6203 32.0804 23.2924C31.4803 23.9645 30.6817 24.4294 29.7998 24.6199C29.4622 24.6957 29.1559 24.8721 28.9212 25.1257C28.6866 25.3793 28.5349 25.6982 28.4863 26.0399C28.0865 27.7551 28.1244 29.543 28.5966 31.2399C29.0365 33.537 30.0312 35.6925 31.4945 37.5199C31.7297 37.7911 31.9808 38.0482 32.2465 38.2899C32.467 38.523 32.7459 38.6931 33.0544 38.7828C33.3628 38.8724 33.6897 38.8783 34.0012 38.7999C34.8804 38.5477 35.8158 38.5685 36.6828 38.8597C37.5498 39.1509 38.3073 39.6986 38.8543 40.4299C40.184 42.1032 41.384 43.875 42.444 45.7299C43.6573 47.9099 42.9956 49.8899 40.7796 51.0799C39.1767 51.9241 37.3961 52.3779 35.5835 52.4039C33.771 52.43 31.978 52.0277 30.3514 51.2299C26.6849 49.546 23.6783 46.7022 21.7982 43.1399C18.4181 37.5305 16.7233 31.0714 16.915 24.5299C16.904 20.8868 18.2228 17.3643 20.6251 14.6199C21.6418 13.4404 22.9018 12.4938 24.3192 11.8448C25.7366 11.1959 27.2777 10.8599 28.8373 10.8599C29.4189 10.8094 30.0046 10.8813 30.5566 11.0708C31.1086 11.2604 31.6145 11.5633 32.0417 11.9601C32.4689 12.357 32.8079 12.8388 33.0366 13.3745C33.2653 13.9102 33.3787 14.4877 33.3695 15.0699C33.3695 15.7799 33.3695 16.5099 33.3695 17.2299H33.4798ZM31.2739 17.2299H31.2137C31.2137 16.5599 31.2137 15.8799 31.2137 15.2299C31.0934 13.6799 30.4015 13.0099 28.8473 13.0299C27.6143 13.0296 26.3955 13.2928 25.2729 13.8016C24.1504 14.3105 23.1503 15.0532 22.3397 15.9799C20.2524 18.3179 19.0998 21.3395 19.101 24.4699C18.8852 30.8946 20.611 37.2357 24.0543 42.6699C25.8079 45.8043 28.5966 48.2356 31.9456 49.5499C33.14 50.0415 34.4243 50.2786 35.716 50.2459C37.0076 50.2132 38.2781 49.9114 39.4459 49.3599C40.95 48.6299 41.2508 47.8499 40.4486 46.4199C39.6464 44.9899 38.4432 43.4199 37.4405 42.0199C37.0879 41.5107 36.5734 41.1351 35.9802 40.9536C35.3871 40.7721 34.7498 40.7955 34.1716 41.0199C33.7806 41.1508 33.3634 41.1845 32.9563 41.1183C32.5492 41.0521 32.1645 40.8879 31.8354 40.6399C31.048 40.0925 30.3307 39.4511 29.6996 38.7299C27.9123 36.42 26.7551 33.6881 26.3405 30.7999C25.899 28.8448 26.01 26.8058 26.6613 24.9099C26.8123 24.3511 27.1166 23.8455 27.5399 23.4497C27.9633 23.054 28.489 22.7839 29.0578 22.6699C29.6443 22.5954 30.1816 22.3046 30.5639 21.8549C30.9461 21.4052 31.1458 20.8291 31.1235 20.2399C31.1736 19.2299 31.2137 18.2299 31.2739 17.2299Z" fill="#407CD3"/>
<path d="M56.6833 10.84H63.7023C64.6047 10.84 65.0861 11.23 65.0861 11.93C65.0861 12.63 64.5948 13 63.7425 13H49.7045C48.7018 13 48.1603 12.4 48.3809 11.65C48.46 11.3822 48.6334 11.1517 48.8691 11.0011C49.1049 10.8505 49.3873 10.7897 49.6644 10.83L56.6833 10.84Z" fill="#407CD3"/>
<path d="M56.6525 18.7101H49.8742C49.6326 18.7137 49.3911 18.697 49.1523 18.6601C48.8968 18.6227 48.6656 18.4886 48.5069 18.2856C48.3481 18.0825 48.274 17.8262 48.3 17.5701C48.2982 17.3244 48.3872 17.0867 48.55 16.9022C48.7127 16.7178 48.9378 16.5995 49.1824 16.5701C49.4226 16.5499 49.6641 16.5499 49.9043 16.5701H63.471C63.7361 16.5568 64.0018 16.5736 64.2631 16.6201C64.493 16.6668 64.6993 16.7925 64.8458 16.9752C64.9924 17.1579 65.07 17.3861 65.0653 17.6201C65.089 17.8601 65.0249 18.1005 64.8849 18.2972C64.7448 18.4938 64.5383 18.6333 64.3032 18.6901C64.0423 18.7402 63.7765 18.7604 63.511 18.7501L56.6525 18.7101Z" fill="#407CD3"/>
</g>
<defs>
<clipPath id="clip0_1_3012">
<rect width="74" height="64" fill="white"/>
</clipPath>
</defs>
</svg>
