<svg version="1.1" id="Layer_1" xmlns="http://www.w3.org/2000/svg" xmlns:xlink="http://www.w3.org/1999/xlink" x="0px" y="0px"
	 width="100%" viewBox="0 0 450 600" enable-background="new 0 0 450 600" xml:space="preserve">
<path fill="#EBEEF3" opacity="1.000000" stroke="none" 
	d="
M451.000000,219.000000 
	C451.000000,346.666656 451.000000,473.833344 451.000000,601.000000 
	C301.000000,601.000000 151.000000,601.000000 1.000000,601.000000 
	C1.000000,401.000000 1.000000,201.000000 1.000000,1.000000 
	C151.000000,1.000000 301.000000,1.000000 451.000000,1.000000 
	C451.000000,73.500000 451.000000,146.000000 451.000000,219.000000 
M288.949310,520.449097 
	C276.952667,532.539062 263.138184,541.920044 247.300949,548.238586 
	C213.145706,561.865479 179.229752,559.618225 145.603180,546.352051 
	C121.254944,536.746338 101.154900,521.713196 87.216736,499.181702 
	C77.166992,482.935974 73.093864,464.970306 71.590286,446.111786 
	C68.655212,409.298767 74.839714,374.459869 93.244118,342.190430 
	C108.099228,316.144104 128.152588,294.849762 153.006882,278.066681 
	C161.498962,272.332336 169.928940,266.506042 178.387283,260.721771 
	C178.302124,260.382935 178.216965,260.044067 178.131805,259.705200 
	C165.118835,259.705200 152.105850,259.705200 138.749191,259.705200 
	C138.749191,257.264862 138.749191,255.448914 138.749191,253.632965 
	C138.749191,229.133591 138.749176,204.634232 138.749176,180.134857 
	C138.749207,140.469208 138.773254,100.803528 138.701950,61.138012 
	C138.696472,58.091961 139.071487,56.400681 142.749451,55.875713 
	C173.919357,51.426685 203.079956,56.821518 229.995956,73.322517 
	C274.475891,100.591179 289.913879,161.311737 264.087158,206.688309 
	C254.482254,223.563828 240.413269,235.921829 223.295792,247.267548 
	C227.640854,246.949265 230.696503,246.783096 233.740433,246.493652 
	C267.394165,243.293365 300.624512,245.408798 333.190247,254.837219 
	C341.490845,257.240417 348.194763,255.279419 354.145752,249.448441 
	C370.959534,232.973755 382.467590,213.350876 388.068207,190.518616 
	C398.407379,148.368805 391.754425,109.000992 364.331329,75.120445 
	C333.540009,37.078571 291.163544,19.372717 243.579208,14.307676 
	C218.459137,11.633807 193.017517,11.495049 167.709015,11.179909 
	C117.882652,10.559473 68.047882,10.614118 18.216593,10.390768 
	C16.590113,10.383477 14.963573,10.389843 12.757769,10.389843 
	C12.757769,203.791306 12.757769,396.692871 12.757769,589.917053 
	C14.451286,589.917053 15.769743,589.916748 17.088200,589.917114 
	C101.919281,589.943542 186.750534,590.068054 271.581329,589.929260 
	C293.475464,589.893433 315.041351,586.863953 336.168213,580.835144 
	C402.721802,561.843018 446.311493,505.102142 445.390686,436.237793 
	C444.569031,374.791168 415.057037,328.713654 363.634613,297.237915 
	C319.565765,270.263306 270.645050,267.120819 221.120987,276.859344 
	C178.761002,285.189148 145.928238,309.335907 122.607307,345.463989 
	C101.873833,377.583710 93.006630,412.938080 98.934921,451.185486 
	C105.763412,495.240723 145.478165,522.242737 188.895447,512.741455 
	C222.214218,505.450073 242.062897,475.956879 236.022583,442.715118 
	C230.537811,412.530853 201.921005,392.245728 171.799500,396.722473 
	C154.479172,399.296600 141.293137,408.317596 130.215637,421.223114 
	C128.931000,422.719757 127.390724,423.996979 125.968964,425.375916 
	C127.026810,417.229950 128.887360,409.733093 131.179214,402.370483 
	C138.596664,378.541992 152.087570,359.171051 174.424194,347.261932 
	C210.897446,327.815704 246.757156,331.397278 281.007385,352.787384 
	C305.605133,368.149323 321.022095,390.534729 323.846588,419.786682 
	C327.548431,458.125122 315.987122,491.733368 288.949310,520.449097 
z"/>
<path fill="#092068" opacity="1.000000" stroke="none" 
	d="
M289.196533,520.194214 
	C315.987122,491.733368 327.548431,458.125122 323.846588,419.786682 
	C321.022095,390.534729 305.605133,368.149323 281.007385,352.787384 
	C246.757156,331.397278 210.897446,327.815704 174.424194,347.261932 
	C152.087570,359.171051 138.596664,378.541992 131.179214,402.370483 
	C128.887360,409.733093 127.026810,417.229950 125.968964,425.375916 
	C127.390724,423.996979 128.931000,422.719757 130.215637,421.223114 
	C141.293137,408.317596 154.479172,399.296600 171.799500,396.722473 
	C201.921005,392.245728 230.537811,412.530853 236.022583,442.715118 
	C242.062897,475.956879 222.214218,505.450073 188.895447,512.741455 
	C145.478165,522.242737 105.763412,495.240723 98.934921,451.185486 
	C93.006630,412.938080 101.873833,377.583710 122.607307,345.463989 
	C145.928238,309.335907 178.761002,285.189148 221.120987,276.859344 
	C270.645050,267.120819 319.565765,270.263306 363.634613,297.237915 
	C415.057037,328.713654 444.569031,374.791168 445.390686,436.237793 
	C446.311493,505.102142 402.721802,561.843018 336.168213,580.835144 
	C315.041351,586.863953 293.475464,589.893433 271.581329,589.929260 
	C186.750534,590.068054 101.919281,589.943542 17.088200,589.917114 
	C15.769743,589.916748 14.451286,589.917053 12.757769,589.917053 
	C12.757769,396.692871 12.757769,203.791306 12.757769,10.389843 
	C14.963573,10.389843 16.590113,10.383477 18.216593,10.390768 
	C68.047882,10.614118 117.882652,10.559473 167.709015,11.179909 
	C193.017517,11.495049 218.459137,11.633807 243.579208,14.307676 
	C291.163544,19.372717 333.540009,37.078571 364.331329,75.120445 
	C391.754425,109.000992 398.407379,148.368805 388.068207,190.518616 
	C382.467590,213.350876 370.959534,232.973755 354.145752,249.448441 
	C348.194763,255.279419 341.490845,257.240417 333.190247,254.837219 
	C300.624512,245.408798 267.394165,243.293365 233.740433,246.493652 
	C230.696503,246.783096 227.640854,246.949265 223.295792,247.267548 
	C240.413269,235.921829 254.482254,223.563828 264.087158,206.688309 
	C289.913879,161.311737 274.475891,100.591179 229.995956,73.322517 
	C203.079956,56.821518 173.919357,51.426685 142.749451,55.875713 
	C139.071487,56.400681 138.696472,58.091961 138.701950,61.138012 
	C138.773254,100.803528 138.749207,140.469208 138.749176,180.134857 
	C138.749176,204.634232 138.749191,229.133591 138.749191,253.632965 
	C138.749191,255.448914 138.749191,257.264862 138.749191,259.705200 
	C152.105850,259.705200 165.118835,259.705200 178.131805,259.705200 
	C178.216965,260.044067 178.302124,260.382935 178.387283,260.721771 
	C169.928940,266.506042 161.498962,272.332336 153.006882,278.066681 
	C128.152588,294.849762 108.099228,316.144104 93.244118,342.190430 
	C74.839714,374.459869 68.655212,409.298767 71.590286,446.111786 
	C73.093864,464.970306 77.166992,482.935974 87.216736,499.181702 
	C101.154900,521.713196 121.254944,536.746338 145.603180,546.352051 
	C179.229752,559.618225 213.145706,561.865479 247.300949,548.238586 
	C263.138184,541.920044 276.952667,532.539062 289.196533,520.194214 
z"/>
</svg>