<svg width="36" height="36" viewBox="0 0 36 36" fill="none" xmlns="http://www.w3.org/2000/svg">
<path fill-rule="evenodd" clip-rule="evenodd" d="M18.3886 23.0643L15.8799 25.0599L15.1706 25.1511L13.5834 19.9599L8 18.2192L25.1892 12L26 12.0172L23.2917 26L18.3886 23.0643ZM22.6877 14.6275L14.8114 19.1093L15.7184 22.7819L15.9669 22.7286L16.9138 19.8945L23.2083 14.686L22.6877 14.6275Z" fill="#7E7E7E"/>
<path d="M18 0C14.4399 0 10.9598 1.05569 7.99974 3.03355C5.03966 5.01142 2.73255 7.82262 1.37017 11.1117C0.00779724 14.4008 -0.34866 18.02 0.345874 21.5116C1.04041 25.0033 2.75474 28.2106 5.27209 30.7279C7.78944 33.2453 10.9967 34.9596 14.4884 35.6541C17.98 36.3487 21.5992 35.9922 24.8883 34.6298C28.1774 33.2675 30.9886 30.9604 32.9665 28.0003C34.9443 25.0402 36 21.5601 36 18C35.993 13.2282 34.0944 8.65392 30.7202 5.27978C27.3461 1.90563 22.7718 0.00696778 18 0ZM18 35.122C14.6136 35.122 11.3032 34.1178 8.48756 32.2364C5.67187 30.355 3.4773 27.6809 2.18138 24.5523C0.885461 21.4237 0.546387 17.981 1.20704 14.6597C1.8677 11.3383 3.4984 8.28749 5.89295 5.89295C8.2875 3.4984 11.3383 1.86769 14.6597 1.20704C17.981 0.546381 21.4237 0.885456 24.5523 2.18138C27.6809 3.4773 30.355 5.67186 32.2364 8.48756C34.1178 11.3032 35.122 14.6136 35.122 18C35.115 22.5389 33.3088 26.8899 30.0994 30.0994C26.8899 33.3088 22.5389 35.115 18 35.122Z" fill="#7E7E7E"/>
</svg>
