<svg width="56" height="64" viewBox="0 0 56 64" fill="none" xmlns="http://www.w3.org/2000/svg">
<path d="M54.2635 58.01C53.5351 58.01 52.8067 58.01 52.0284 58.01C52.0284 57.57 52.0284 57.23 51.9585 56.89C51.8088 55.18 51.739 53.46 51.4796 51.78C49.9573 42.05 45.6961 32.9573 39.1964 25.57C39.0348 25.3816 38.9096 25.1645 38.8273 24.93C38.5279 24.02 38.2484 23.1 37.969 22.18L37.6997 22.11C37.9166 21.9762 38.1203 21.8222 38.3084 21.65L43.7365 16.19C44.5647 15.35 44.5746 14.97 43.7365 14.12C43.3573 13.74 42.8983 13.43 42.5889 13.12L47.3985 8.30003C47.628 8.54003 47.8974 8.85003 48.1967 9.14003C48.2793 9.22145 48.377 9.28579 48.4844 9.32935C48.5918 9.37291 48.7066 9.39485 48.8224 9.39392C48.9382 9.39299 49.0528 9.36921 49.1594 9.32393C49.2661 9.27865 49.3627 9.21277 49.444 9.13004C49.5252 9.0473 49.5894 8.94934 49.6329 8.84175C49.6764 8.73416 49.6983 8.61903 49.6973 8.50296C49.6964 8.38689 49.6727 8.27214 49.6275 8.16525C49.5824 8.05837 49.5167 7.96146 49.4341 7.88004L48.0072 6.50003L41.8805 0.370042C41.8067 0.265034 41.7106 0.177717 41.599 0.114366C41.4875 0.0510152 41.3634 0.0131935 41.2356 0.00363294C41.1077 -0.00592758 40.9793 0.0130074 40.8597 0.0590681C40.74 0.105129 40.6321 0.177175 40.5435 0.270036C40.0945 0.660036 40.1244 1.15004 40.6332 1.65004C40.8954 1.88086 41.172 2.09462 41.4614 2.29004L36.612 7.14003C36.1929 6.70003 35.7439 6.14004 35.245 5.70004C35.1519 5.59545 35.0367 5.51302 34.9078 5.45879C34.7789 5.40456 34.6396 5.37989 34.4999 5.3866C34.3602 5.39331 34.2239 5.43123 34.1007 5.49758C33.9776 5.56392 33.8708 5.657 33.7882 5.77004C26.9431 12.6634 20.0881 19.54 13.2231 26.4C13.1167 26.4809 13.0295 26.5844 12.9675 26.7029C12.9056 26.8215 12.8706 26.9522 12.8649 27.0859C12.8591 27.2196 12.883 27.3529 12.9345 27.4764C12.9861 27.5998 13.0641 27.7103 13.1632 27.8C13.4126 28.1 13.6721 28.38 13.8118 28.53C13.1233 29.3 12.4547 30.01 11.8161 30.75C11.1775 31.49 11.1975 31.85 11.8161 32.52L17.2044 37.93C17.9428 38.67 18.3119 38.67 19.0503 37.93C19.7887 37.19 20.3774 36.55 21.046 35.8C21.2555 36.05 21.3454 36.19 21.4551 36.3C22.4529 37.24 22.6925 37.24 23.6104 36.3C25.3067 34.6 27.013 32.9 28.6993 31.19C29.0086 30.88 29.2881 30.55 29.4677 30.35C30.4655 30.69 31.2139 30.94 31.9722 31.24C32.0779 31.2862 32.1731 31.3534 32.252 31.4376C32.3309 31.5219 32.3919 31.6214 32.4312 31.73C32.6707 32.62 32.8902 33.52 33.0498 34.43C33.7175 37.4199 33.7887 40.5125 33.2593 43.53C32.6407 46.43 31.1739 48.76 28.0707 49.25C25.5847 49.5123 23.0867 49.6424 20.587 49.64V47.41H21.3653C22.7723 47.41 24.1792 47.41 25.5861 47.41C26.3345 47.41 26.6438 47.11 26.6537 46.36C26.6537 45.09 26.6537 43.82 26.6537 42.54C26.6537 41.74 26.3544 41.45 25.5562 41.45H2.82572C2.06737 41.45 1.76808 41.74 1.7581 42.45C1.7581 43.75 1.7581 45.04 1.7581 46.34C1.7581 47.14 2.04747 47.39 2.87566 47.4C4.28259 47.4 5.6895 47.4 7.09643 47.4C7.34589 47.4 7.58538 47.4 7.86477 47.4C7.86477 48.18 7.86477 48.87 7.86477 49.56C7.84135 49.7572 7.74085 49.937 7.58535 50.06C6.09331 51.0707 5.02706 52.5987 4.59189 54.35C4.24265 55.49 4.05311 56.68 3.77372 57.93C3.02536 57.93 2.21714 57.93 1.41888 57.93C0.620619 57.93 0.421054 58.25 0.421054 58.93C0.421054 60.3 0.421054 61.67 0.421054 63.03C0.410604 63.1526 0.426763 63.276 0.468558 63.3917C0.510352 63.5074 0.57674 63.6127 0.66308 63.7001C0.749419 63.7876 0.853709 63.8553 0.968687 63.8984C1.08367 63.9416 1.20655 63.9592 1.32899 63.95H54.2136C55.1416 63.95 55.4111 63.68 55.4211 62.75C55.4211 61.57 55.4211 60.39 55.4211 59.21C55.4909 58.29 55.2115 58.01 54.2635 58.01ZM50.2123 57.96C50.0676 57.9905 49.9209 58.0106 49.7733 58.0201H41.7908C41.4515 58.0201 41.182 58.02 41.1222 57.56C40.3681 52.6418 40.1008 47.6609 40.324 42.69C40.4669 41.0376 40.7404 39.3991 41.1421 37.79C41.3451 37.0383 41.6833 36.3301 42.14 35.7C42.4952 35.3093 42.9053 34.9724 43.3573 34.7C47.169 40.16 50.5117 51.7 50.2123 57.96ZM42.6788 3.91004L45.8718 7.08003L41.3118 11.64L38.1687 8.50003C39.6754 6.96003 41.2021 5.40004 42.6788 3.91004ZM18.1822 36.1L13.5923 31.5L15.1389 30.01L19.7787 34.65L18.1822 36.1ZM28.3999 28.9L22.6525 34.69L15.1688 27.18L34.6163 7.69003L42.11 15.19L36.4025 20.78C35.3111 19.9603 33.943 19.6014 32.5909 19.78C31.2782 19.9747 30.0673 20.6008 29.1483 21.56C27.1028 23.67 26.8932 25.88 28.3999 28.92V28.9ZM33.2993 29.56C32.7631 29.5961 32.2253 29.5179 31.7215 29.3304C31.2177 29.143 30.7594 28.8506 30.3766 28.4726C29.9938 28.0947 29.6952 27.6397 29.5007 27.1376C29.3062 26.6356 29.22 26.0979 29.2481 25.56C29.2282 25.0347 29.3151 24.5109 29.5035 24.0203C29.6918 23.5296 29.9777 23.0825 30.3437 22.7059C30.7097 22.3294 31.1482 22.0313 31.6326 21.8298C32.1171 21.6283 32.6374 21.5275 33.1619 21.5336C33.6864 21.5397 34.2042 21.6526 34.6838 21.8653C35.1635 22.0781 35.5949 22.3863 35.9521 22.7712C36.3092 23.1562 36.5847 23.6099 36.7616 24.1047C36.9385 24.5996 37.0132 25.1254 36.9812 25.65C37.0082 26.1531 36.9333 26.6564 36.7608 27.1296C36.5884 27.6028 36.3221 28.0361 35.978 28.4034C35.6339 28.7706 35.2192 29.0642 34.7589 29.2665C34.2985 29.4687 33.8019 29.5754 33.2993 29.58V29.56ZM3.66398 45.56V43.22H24.9675V45.56H3.66398ZM18.8308 47.43V49.4901H9.78052V47.43H18.8308ZM7.65527 52.43C7.94609 52.044 8.32565 51.7342 8.76174 51.527C9.19784 51.3198 9.67743 51.2214 10.1597 51.2401C15.2685 51.2401 20.3675 51.2401 25.4764 51.2401C26.443 51.2504 27.4084 51.1701 28.3601 51C32.1119 50.23 34.1773 47.74 35.0255 44.13C35.6431 41.1643 35.6669 38.1051 35.0954 35.13C34.8859 33.83 34.5965 32.55 34.337 31.19C35.2978 30.9542 36.1865 30.4865 36.9256 29.8277C37.6648 29.1688 38.232 28.3388 38.5778 27.41C39.9648 29.33 41.2819 31.14 42.5691 33C39.6654 34.6 39.1265 37.38 38.7473 40.17C38.2066 45.3303 38.3207 50.5385 39.0867 55.67C39.1765 56.4 39.2562 57.12 39.346 57.9H5.72942C5.84107 55.9583 6.50984 54.0901 7.65527 52.5201V52.43ZM53.6947 62.12H2.3368V59.7401H53.6947V62.12Z" fill="#00B9C0"/>
</svg>
