<svg width="64" height="60" viewBox="0 0 64 60" fill="none" xmlns="http://www.w3.org/2000/svg">
<path d="M8.53354 60.0001H4.40003C3.8115 60.0466 3.21988 59.9642 2.66593 59.7584C2.11197 59.5527 1.60879 59.2285 1.19085 58.8081C0.772908 58.3877 0.450144 57.881 0.244739 57.323C0.0393334 56.7649 -0.0438605 56.1686 0.00088173 55.5751V22.6822C-0.0454796 22.0878 0.0364247 21.4904 0.241107 20.931C0.445789 20.3716 0.768314 19.8636 1.18644 19.442C1.60457 19.0204 2.10844 18.6952 2.6632 18.4888C3.21797 18.2824 3.81053 18.1998 4.40003 18.2465H12.9008C13.4949 18.2021 14.0916 18.287 14.6503 18.4955C15.2091 18.704 15.7167 19.0312 16.139 19.4549C16.5613 19.8787 16.8883 20.3891 17.0977 20.9515C17.3072 21.5139 17.3942 22.1151 17.353 22.7144V23.7858V24.8037L18.9681 23.0894C19.5313 22.5108 20.0308 21.9215 20.6152 21.3108C23.1535 18.2791 25.097 14.7886 26.3425 11.0251C26.7463 9.95367 27.1714 8.81793 27.607 7.71436C28.149 6.33221 28.6696 4.88578 29.2009 3.42864C29.4343 2.4329 29.9996 1.54812 30.8022 0.922123C31.6049 0.296124 32.5962 -0.0331528 33.6107 -0.010636C34.2641 -0.00545417 34.914 0.0845724 35.5446 0.257221C36.4602 0.487888 37.3197 0.90419 38.0706 1.48076C38.8214 2.05733 39.4479 2.78208 39.9118 3.6108C40.3927 4.47698 40.6944 5.43254 40.7985 6.41964C40.9026 7.40674 40.807 8.40485 40.5176 9.35364C39.9119 11.4001 39.285 13.4358 38.6687 15.4822L37.7549 18.4501L37.6167 18.9322L37.4041 19.7358H58.0185C59.2768 19.6808 60.5179 20.0473 61.5482 20.7779C62.5784 21.5086 63.3398 22.5624 63.7139 23.7751C64.1079 25.0525 64.0401 26.4294 63.5226 27.6612C63.0052 28.8931 62.0715 29.9002 60.8874 30.5037L60.4306 30.7287L59.8355 31.0179L60.048 31.3715C60.5004 32.0961 60.7916 32.9109 60.9017 33.7599C61.0117 34.6089 60.938 35.4719 60.6856 36.2894C60.4095 37.1149 59.9598 37.8706 59.3675 38.5048C58.7751 39.1391 58.0541 39.6369 57.2534 39.9644L56.9133 40.1144L57.0515 40.4572C58.741 44.6144 57.9547 46.9608 54.1506 49.1144L53.8 49.3072L54.0125 49.6501C54.8213 50.8876 55.1152 52.3961 54.8307 53.8501C54.6124 55.1368 53.9496 56.3041 52.9597 57.1453C51.9698 57.9866 50.7167 58.4475 49.4221 58.4465C47.01 58.4465 44.5872 58.4465 42.1752 58.4465C38.4136 58.4465 34.9495 58.4465 31.5492 58.3394C27.7302 58.1975 24.0075 57.0924 20.7215 55.1251L18.7981 54.0536L17.268 53.1751V55.4465C17.3093 56.0458 17.2222 56.647 17.0128 57.2094C16.8033 57.7718 16.4763 58.2822 16.0541 58.7059C15.6318 59.1297 15.124 59.4569 14.5652 59.6654C14.0065 59.8739 13.4098 59.9588 12.8157 59.9144L8.53354 60.0001ZM4.50627 20.4858C2.94426 20.4858 2.25357 21.1822 2.25357 22.7465V55.4037C2.25357 56.9894 2.94425 57.6965 4.49563 57.6965H12.6775C14.399 57.6965 15.0366 57.0537 15.0366 55.318V22.8322C15.0366 21.1929 14.3778 20.5179 12.7626 20.5179H4.50627V20.4858ZM46.3512 56.1644C47.4138 56.1644 48.4763 56.1644 49.4645 56.1644C50.2612 56.1338 51.0207 55.8166 51.6054 55.2702C52.1902 54.7238 52.5615 53.9844 52.6523 53.1858C52.7482 52.3813 52.5557 51.5687 52.1095 50.8947C51.6632 50.2208 50.9928 49.73 50.2191 49.5108C49.8233 49.4104 49.4155 49.3671 49.0077 49.3822H46.3937H44.9167C44.7623 49.4016 44.6055 49.3887 44.4563 49.3445C44.307 49.3003 44.1684 49.2257 44.0488 49.1252C43.9293 49.0248 43.8314 48.9007 43.7614 48.7606C43.6914 48.6205 43.6505 48.4674 43.6415 48.3108C43.6415 47.6251 44.1303 47.1858 44.9485 47.1537H51.9935C52.479 47.1579 52.9626 47.0893 53.4281 46.9501C54.1729 46.6904 54.8028 46.174 55.2071 45.492C55.6114 44.8099 55.7641 44.0059 55.6383 43.2215C55.53 42.4408 55.1499 41.7244 54.5659 41.2003C53.9819 40.6762 53.2321 40.3786 52.4505 40.3608H50.0171H46.5213C46.3269 40.3697 46.1326 40.3392 45.9501 40.2711C45.7676 40.203 45.6005 40.0987 45.4587 39.9644C45.3559 39.8472 45.2797 39.7088 45.2357 39.5589C45.1916 39.409 45.1806 39.2512 45.2035 39.0965C45.2779 38.2072 46.0961 38.0251 46.5743 38.0251H54.9795C55.4118 38.0387 55.8439 37.9954 56.2652 37.8965C57.0259 37.6819 57.6879 37.2053 58.1364 36.5496C58.5848 35.8939 58.7913 35.1005 58.7198 34.3072C58.6549 33.4907 58.294 32.7268 57.706 32.1616C57.118 31.5963 56.344 31.2693 55.532 31.243C54.4694 31.243 53.3325 31.243 52.2274 31.243H48.4551C46.7125 31.243 46.7124 30.3858 46.7018 30.0965C46.6943 29.9632 46.714 29.8297 46.7597 29.7044C46.8054 29.5791 46.8761 29.4646 46.9675 29.368C47.3838 29.0411 47.9087 28.8877 48.4338 28.9394H58.4648C59.1825 28.9487 59.8832 28.7198 60.4592 28.2881C61.0352 27.8564 61.4546 27.2457 61.6526 26.5501C61.8843 25.8689 61.8825 25.1291 61.6474 24.4491C61.4123 23.7691 60.9576 23.1884 60.3561 22.8001C59.6557 22.3892 58.8606 22.1712 58.0504 22.1679C54.4376 22.1679 50.8247 22.1679 47.2118 22.1679H38.2755C37.798 22.2352 37.3112 22.1718 36.8663 21.9842C36.4215 21.7967 36.0349 21.4919 35.7469 21.1019C35.459 20.7119 35.2804 20.251 35.2299 19.7675C35.1794 19.2839 35.2587 18.7956 35.4596 18.3537C35.7571 17.3572 36.0653 16.3715 36.3734 15.3751C37.0535 13.168 37.7548 10.8858 38.3924 8.62508C38.5941 7.92244 38.6337 7.18263 38.5085 6.46214C38.3833 5.74165 38.0964 5.05954 37.6698 4.46793C37.243 3.8637 36.6853 3.36541 36.039 3.01083C35.3928 2.65626 34.675 2.45475 33.9401 2.42153H33.5788C32.3993 2.42153 31.868 2.81793 31.3898 4.0715L30.4866 6.45008C29.6047 8.77508 28.7121 11.1001 27.8301 13.4358C25.8307 18.8233 22.4101 23.5579 17.9375 27.1287C17.735 27.2801 17.5728 27.4797 17.4653 27.7096C17.3578 27.9395 17.3082 28.1926 17.3211 28.4465C17.3211 31.1894 17.3211 33.9215 17.3211 36.6644V41.7537C17.3211 44.4322 17.3211 47.1108 17.3211 49.8001C17.2923 50.1009 17.3592 50.4032 17.512 50.6632C17.6648 50.9232 17.8957 51.1275 18.1712 51.2465C18.9788 51.6751 19.7757 52.1358 20.5727 52.6072L21.7202 53.2715C25.0932 55.2308 28.9107 56.2789 32.8031 56.3144H46.3299L46.3512 56.1644Z" fill="#00B9C0"/>
</svg>
