<svg width="64" height="64" viewBox="0 0 64 64" fill="none" xmlns="http://www.w3.org/2000/svg">
<g clip-path="url(#clip0_1_3021)">
<path d="M62.3493 15.86C61.285 14.9034 59.8887 14.4009 58.4587 14.46C54.048 14.46 49.6273 14.46 45.2066 14.46H44.3866C44.3866 13.77 44.3866 13.13 44.3866 12.46C44.4247 10.26 43.8665 8.09072 42.7712 6.18225C41.676 4.27378 40.0844 2.69728 38.1655 1.62001C36.5411 0.693037 34.7276 0.146686 32.8615 0.0220938C30.9953 -0.102498 29.1251 0.197917 27.3918 0.900725C25.6586 1.60353 24.1076 2.69039 22.8554 4.07947C21.6032 5.46854 20.6824 7.12362 20.1627 8.92001C19.9003 10.1588 19.7331 11.4158 19.6626 12.68C19.6323 13.263 19.6323 13.8471 19.6626 14.43H5.5105C4.47584 14.3387 3.43842 14.5717 2.54226 15.0967C1.64611 15.6218 0.935708 16.4129 0.509719 17.36C0.155697 18.1142 -0.028697 18.9369 -0.0304041 19.77C-0.0304041 30.6567 -0.0304041 41.5467 -0.0304041 52.44C-0.0432423 53.155 0.0901774 53.8651 0.361625 54.5267C0.633072 55.1884 1.03688 55.7875 1.54821 56.2876C2.05955 56.7876 2.66764 57.1779 3.33523 57.4345C4.00283 57.6912 4.71575 57.8087 5.43041 57.78C9.53105 57.78 13.6317 57.78 17.7424 57.78H18.5525C18.5525 59.11 18.5525 60.37 18.5525 61.63C18.5525 61.73 18.2324 61.89 18.0524 61.9C16.8922 61.9 15.7221 61.9 14.4919 61.9V64.01H49.4974V61.94C48.3872 61.94 47.287 61.94 46.1868 61.94C45.5667 61.94 45.3567 61.8 45.3967 61.15C45.4567 60.08 45.3967 58.99 45.3967 57.83H46.1567C50.2574 57.83 54.3581 57.83 58.4587 57.83C59.4978 57.8938 60.5319 57.6414 61.4246 57.1058C62.3174 56.5703 63.0268 55.7768 63.4595 54.83C63.6746 54.3146 63.8486 53.7829 63.9796 53.24V19.01C63.7791 17.8154 63.2089 16.7137 62.3493 15.86ZM22.3431 8.73001C23.121 6.6856 24.5285 4.94122 26.3625 3.74863C28.1965 2.55603 30.362 1.9769 32.5466 2.09485C34.7311 2.21279 36.8217 3.0217 38.5165 4.40481C40.2114 5.78793 41.4229 7.67372 41.9762 9.79001C42.3264 11.8066 42.4439 13.8567 42.3262 15.9C41.5861 15.75 40.936 15.64 40.3259 15.49C40.2343 15.467 40.1481 15.426 40.0725 15.3694C39.997 15.3127 39.9336 15.2415 39.8859 15.16C38.6057 12.74 36.5053 11.81 33.8849 12.77C32.6379 13.2604 31.2514 13.2604 30.0043 12.77C29.4604 12.5371 28.8755 12.4145 28.2838 12.4093C27.6921 12.404 27.1053 12.5163 26.5574 12.7396C26.0094 12.9628 25.5112 13.2926 25.0917 13.7098C24.6721 14.127 24.3396 14.6233 24.1134 15.17C24.0157 15.3355 23.8581 15.4572 23.6733 15.51C23.0331 15.66 22.393 15.77 21.6729 15.91C21.7129 13.48 21.463 11.07 22.3531 8.73001H22.3431ZM42.3462 19.58C42.3463 19.8478 42.2927 20.1129 42.1885 20.3595C42.0842 20.6061 41.9315 20.8293 41.7393 21.0159C41.5472 21.2024 41.3194 21.3484 41.0698 21.4453C40.8201 21.5422 40.5535 21.5881 40.2858 21.58V17.58C40.554 17.5644 40.8225 17.6052 41.0739 17.6997C41.3253 17.7943 41.5541 17.9405 41.7454 18.129C41.9368 18.3175 42.0865 18.544 42.1848 18.794C42.2831 19.0439 42.3278 19.3117 42.3162 19.58H42.3462ZM42.3462 37.2V43.34H21.713V37.19H19.7127V43.32H15.6221C15.6221 43.18 15.6221 43.02 15.6221 42.87C15.6221 41.43 15.6221 39.99 15.6221 38.56C15.5906 37.4527 15.9212 36.3654 16.5637 35.463C17.2063 34.5607 18.1258 33.8925 19.1826 33.56C20.5328 33.1 21.923 32.75 23.3332 32.33C24.4134 34.83 25.4735 37.33 26.5537 39.82L28.4941 38.28C29.4942 37.44 30.6143 36.61 31.6545 35.74C31.7107 35.6692 31.7822 35.612 31.8636 35.5727C31.945 35.5334 32.0342 35.513 32.1246 35.513C32.215 35.513 32.3043 35.5334 32.3857 35.5727C32.4671 35.612 32.5385 35.6692 32.5947 35.74C34.0549 36.95 35.5952 38.12 37.0254 39.3L37.7055 39.83L39.3257 36.07C39.8558 34.85 40.3259 33.63 40.9259 32.33C42.5162 32.82 44.1365 33.19 45.6368 33.82C46.4575 34.1368 47.1704 34.6817 47.6914 35.3905C48.2124 36.0992 48.5198 36.9423 48.5772 37.82C48.7172 39.61 48.5772 41.43 48.5772 43.28H44.5166V37.16L42.3462 37.2ZM30.4543 34.01L27.2539 36.57L25.2536 31.82C25.9937 31.6 26.6638 31.39 27.3439 31.22C27.4292 31.2081 27.5162 31.2144 27.5989 31.2386C27.6817 31.2627 27.7583 31.3041 27.8239 31.36C28.7141 32.19 29.5242 33.06 30.4543 34.01ZM28.8341 28.32C30.8329 29.0896 33.0462 29.0896 35.045 28.32C35.144 28.6252 35.1514 28.9527 35.066 29.262C34.9807 29.5713 34.8064 29.8487 34.565 30.06C33.6848 30.84 32.8948 31.72 32.0146 32.61C31.0145 31.61 30.0143 30.61 29.0142 29.61C28.8241 29.35 28.9041 28.82 28.8341 28.29V28.32ZM36.7454 36.57L33.5548 34.02C34.4949 33.08 35.3751 32.18 36.2852 31.3C36.3365 31.255 36.3975 31.2226 36.4635 31.2052C36.5294 31.1879 36.5985 31.1861 36.6653 31.2C37.3654 31.39 38.0555 31.6 38.7856 31.82C38.0955 33.38 37.4354 34.93 36.7153 36.54L36.7454 36.57ZM31.9946 26.88C30.6847 26.8767 29.4104 26.4533 28.359 25.6721C27.3077 24.8909 26.5346 23.7931 26.1536 22.54C25.9341 21.5718 25.8201 20.5827 25.8136 19.59C25.7435 18.6546 25.7435 17.7154 25.8136 16.78C25.8378 16.4041 25.9484 16.0388 26.1368 15.7125C26.3251 15.3863 26.5862 15.1079 26.8997 14.8989C27.2132 14.6899 27.5707 14.5561 27.9443 14.5077C28.318 14.4593 28.6977 14.4977 29.0541 14.62C29.8942 14.87 30.7043 15.18 31.5445 15.42C31.8168 15.4899 32.1024 15.4899 32.3747 15.42C33.1948 15.18 33.9949 14.88 34.815 14.64C35.1792 14.5079 35.5695 14.4632 35.9542 14.5097C36.3389 14.5562 36.7072 14.6925 37.0295 14.9077C37.3517 15.1228 37.6188 15.4107 37.8092 15.7481C37.9997 16.0855 38.108 16.463 38.1256 16.85C38.1856 17.61 38.1256 18.39 38.1256 19.16H38.2855C38.1937 20.2959 38.03 21.4248 37.7955 22.54C37.4099 23.7802 36.6403 24.8659 35.5977 25.6405C34.5551 26.4151 33.2935 26.8386 31.9946 26.85V26.88ZM23.7333 17.66V21.66C23.474 21.6694 23.2154 21.6265 22.9731 21.5337C22.7307 21.4409 22.5097 21.3002 22.3229 21.1201C22.1362 20.9399 21.9877 20.724 21.8864 20.4851C21.785 20.2463 21.7328 19.9895 21.733 19.73C21.7195 19.4608 21.7605 19.1915 21.8538 18.9386C21.947 18.6856 22.0904 18.4541 22.2753 18.2579C22.4603 18.0617 22.6831 17.905 22.9302 17.7971C23.1773 17.6892 23.4437 17.6324 23.7133 17.63L23.7333 17.66ZM2.0699 20.06C2.012 19.5847 2.06293 19.1025 2.21873 18.6498C2.37452 18.1971 2.63109 17.7857 2.96921 17.4466C3.30733 17.1076 3.71809 16.8498 4.17045 16.6927C4.62281 16.5357 5.10495 16.4835 5.58046 16.54H19.5826C19.5826 17.54 19.5826 18.47 19.5826 19.41C19.5458 20.378 19.8384 21.3299 20.4127 22.11C20.8072 22.639 21.3229 23.0658 21.9163 23.3546C22.5096 23.6434 23.1635 23.7859 23.8233 23.77C23.9821 23.7654 24.1387 23.8087 24.2725 23.8943C24.4063 23.9799 24.5111 24.1039 24.5734 24.25C25.0434 25.0512 25.5857 25.8077 26.1937 26.51C26.4069 26.6975 26.5752 26.9306 26.6861 27.192C26.7969 27.4534 26.8474 27.7364 26.8338 28.02C26.7538 29.47 27.0638 29.1 25.7136 29.5C23.4132 30.2 21.0929 30.86 18.7125 31.5C17.2527 31.8879 15.9529 32.7274 14.999 33.8984C14.0452 35.0695 13.486 36.5121 13.4016 38.02C13.3316 40.45 13.4016 42.89 13.4016 45.37H50.5374V44.24C50.5374 42.16 50.5375 40.07 50.4575 38C50.3686 36.4912 49.8039 35.0494 48.8443 33.8816C47.8847 32.7138 46.5797 31.88 45.1167 31.5C42.6563 30.81 40.2059 30.07 37.7455 29.39C37.2154 29.24 37.0154 29.01 37.0854 28.49C37.0701 28.2202 37.0701 27.9498 37.0854 27.68C37.1533 27.3554 37.2823 27.0466 37.4654 26.77C38.0755 25.9 38.7356 25.08 39.3357 24.21C39.5258 23.94 39.6557 23.77 40.0358 23.76C40.6112 23.7791 41.1843 23.6779 41.7184 23.4631C42.2525 23.2483 42.736 22.9244 43.1378 22.5122C43.5397 22.1001 43.8512 21.6086 44.0524 21.0693C44.2536 20.53 44.3402 19.9546 44.3065 19.38V16.51H58.4287C58.884 16.4645 59.3437 16.5196 59.7753 16.6715C60.2069 16.8234 60.5998 17.0683 60.9261 17.3889C61.2525 17.7095 61.5044 18.098 61.6639 18.5267C61.8235 18.9555 61.8867 19.4141 61.8493 19.87C61.8493 29.5967 61.8493 39.3234 61.8493 49.05C61.8493 49.18 61.8493 49.3 61.8493 49.54H61.1292C46.8936 49.54 32.6647 49.54 18.4425 49.54C18.0358 49.5516 17.6361 49.4325 17.3023 49.2C16.5278 48.5454 15.6287 48.0546 14.6591 47.7572C13.6896 47.4599 12.6697 47.3621 11.6614 47.47C8.6609 47.63 5.75045 47.47 2.78998 47.47H2.05989C2.05989 47.2 2.05989 46.98 2.05989 46.76L2.0699 20.06ZM58.4988 55.77H22.7632V57.83H43.3263V61.91H20.6429V55.77H5.64053C3.35017 55.77 2.11995 54.56 2.10994 52.28V49.6H2.77008C6.39065 49.6 10.0112 49.6 13.6418 49.6C14.0009 49.5851 14.3542 49.6946 14.6419 49.91C16.3422 51.42 18.3124 51.73 20.5628 51.71C34.0749 51.63 47.567 51.71 61.1192 51.71H61.9092C62.0418 52.211 62.0515 52.7365 61.9375 53.242C61.8235 53.7475 61.5892 54.2181 61.2544 54.6137C60.9197 55.0093 60.4943 55.3182 60.0145 55.5143C59.5348 55.7104 59.0148 55.7878 58.4988 55.74V55.77Z" fill="#00B9C0"/>
<path d="M4.16992 28.8699H17.4921V26.8699H4.16992V28.8699Z" fill="#00B9C0"/>
<path d="M4.17969 22.76V24.76H17.4918V22.76H4.17969Z" fill="#00B9C0"/>
<path d="M17.5021 18.6399H4.16992V20.6399H17.5021V18.6399Z" fill="#00B9C0"/>
<path d="M59.8399 33.0601H52.7188V35.0601H59.8799L59.8399 33.0601Z" fill="#00B9C0"/>
<path d="M52.7188 37.1899V39.1899H59.8799V37.1899H52.7188Z" fill="#00B9C0"/>
<path d="M52.7188 43.3301H59.8799V41.3301H52.7188V43.3301Z" fill="#00B9C0"/>
<path d="M52.7188 47.46H59.8799V45.46H52.7188V47.46Z" fill="#00B9C0"/>
<path d="M4.16992 53.6299H6.16992V51.6299H4.16992V53.6299Z" fill="#00B9C0"/>
<path d="M8.29102 53.6099H10.291V51.6699H8.29102V53.6099Z" fill="#00B9C0"/>
<path d="M12.4121 53.6199H14.4121V51.6199H12.4121V53.6199Z" fill="#00B9C0"/>
</g>
<defs>
<clipPath id="clip0_1_3021">
<rect width="64" height="64" fill="white"/>
</clipPath>
</defs>
</svg>
