<svg width="36" height="36" viewBox="0 0 36 36" fill="none" xmlns="http://www.w3.org/2000/svg">
<path d="M18 0C14.4399 0 10.9598 1.05569 7.99974 3.03355C5.03966 5.01142 2.73255 7.82262 1.37017 11.1117C0.00779724 14.4008 -0.34866 18.02 0.345874 21.5116C1.04041 25.0033 2.75474 28.2106 5.27209 30.7279C7.78944 33.2453 10.9967 34.9596 14.4884 35.6541C17.98 36.3487 21.5992 35.9922 24.8883 34.6298C28.1774 33.2675 30.9886 30.9604 32.9665 28.0003C34.9443 25.0402 36 21.5601 36 18C35.993 13.2282 34.0944 8.65392 30.7202 5.27978C27.3461 1.90563 22.7718 0.00696778 18 0ZM18 35.122C14.6136 35.122 11.3032 34.1178 8.48756 32.2364C5.67187 30.355 3.4773 27.6809 2.18138 24.5523C0.885461 21.4237 0.546387 17.981 1.20704 14.6597C1.8677 11.3383 3.4984 8.28749 5.89295 5.89295C8.2875 3.4984 11.3383 1.86769 14.6597 1.20704C17.981 0.546381 21.4237 0.885456 24.5523 2.18138C27.6809 3.4773 30.355 5.67186 32.2364 8.48756C34.1178 11.3032 35.122 14.6136 35.122 18C35.115 22.5389 33.3088 26.8899 30.0994 30.0994C26.8899 33.3088 22.5389 35.115 18 35.122Z" fill="#7E7E7E"/>
<path d="M27.6041 13.9877C27.4994 13.6084 27.2905 13.2616 26.9983 12.982C26.706 12.7025 26.3407 12.5001 25.939 12.395C24.4523 12.0039 18.4956 12.0039 18.4956 12.0039C16.0118 11.9758 13.5286 12.1003 11.0621 12.3764C10.6602 12.4891 10.2955 12.6962 10.0024 12.9781C9.70935 13.26 9.49757 13.6075 9.38707 13.9877C9.12059 15.4238 8.99123 16.8795 9.00053 18.3372C8.99059 19.7949 9.11996 21.2507 9.38707 22.6867C9.4953 23.0659 9.70662 23.4121 10.0003 23.6914C10.294 23.9706 10.6599 24.1732 11.0621 24.2793C12.5686 24.6705 18.4956 24.6705 18.4956 24.6705C20.9827 24.6986 23.4691 24.5742 25.939 24.2979C26.3407 24.193 26.706 23.9905 26.9983 23.711C27.2905 23.4315 27.4994 23.0846 27.6041 22.7054C27.8774 21.2699 28.01 19.814 28.0005 18.3559C28.021 16.8911 27.8882 15.428 27.6041 13.9877ZM16.6025 21.0475V15.6269L21.5582 18.3372L16.6025 21.0475Z" fill="#7E7E7E"/>
</svg>
